<svg version="1.1" xmlns="http://www.w3.org/2000/svg" xmlns:xlink="http://www.w3.org/1999/xlink" width="91.66666" height="124.00747" viewBox="0,0,91.66666,124.00747"><g transform="translate(-8.16667,-104.32587)"><g data-paper-data="{&quot;isPaintingLayer&quot;:true}" fill-rule="nonzero" stroke-linejoin="miter" stroke-miterlimit="10" stroke-dasharray="" stroke-dashoffset="0" style="mix-blend-mode: normal"><path d="M36.45906,183.90544c-7.77896,-7.46781 -9.63151,-16.03566 -9.18063,-25.14745c0.41648,-8.4166 2.56941,-17.41171 9.18063,-23.75849c7.6468,-7.34094 15.96363,-8.60492 26.13601,-7.90509c8.1436,0.56025 18.17643,1.53909 24.80769,7.90509c7.32491,7.03191 7.05303,15.59604 7.13009,24.13994c0.07983,8.85268 0.24736,17.68365 -7.13009,24.766c-7.20521,6.91701 -16.13553,6.60826 -25.13351,6.70618c-9.10683,0.09912 -18.28299,0.51993 -25.81019,-6.70618z" fill="#eccbab" stroke="#000000" stroke-width="10" stroke-linecap="butt"/><path d="M25,223.33334v-24h68v24z" fill="#767676" stroke="#000000" stroke-width="10" stroke-linecap="butt"/><text transform="translate(46,219.33334) scale(0.5,0.5)" font-size="40" xml:space="preserve" fill="#ff0000" fill-rule="nonzero" stroke="none" stroke-width="1" stroke-linecap="butt" stroke-linejoin="miter" stroke-miterlimit="10" stroke-dasharray="" stroke-dashoffset="0" font-family="Sans Serif" font-weight="normal" text-anchor="start" style="mix-blend-mode: normal"><tspan x="0" dy="0">70</tspan></text><path d="M63.33334,158l23,-17c0,0 1.2456,19.99239 -7.33334,26.33334c-8.57894,6.34095 -15.66667,-9.33334 -15.66667,-9.33334z" fill="#ffffff" stroke="#000000" stroke-width="2" stroke-linecap="round"/><path d="M41.72975,168c-8.57894,-6.34095 -7.33334,-26.33334 -7.33334,-26.33334l23,17c0,0 -7.08773,15.67428 -15.66666,9.33334z" data-paper-data="{&quot;index&quot;:null}" fill="#ffffff" stroke="#000000" stroke-width="2" stroke-linecap="round"/><path d="M75.33333,157c0,2.94552 -1.11929,5.33333 -2.5,5.33333c-1.38071,0 -2.5,-2.38781 -2.5,-5.33333c0,-2.94552 1.11929,-5.33333 2.5,-5.33333c1.38071,0 2.5,2.38781 2.5,5.33333z" fill="#1a1a1a" stroke="none" stroke-width="0" stroke-linecap="butt"/><path d="M51.33334,158.66667c0,2.94552 -1.11929,5.33334 -2.5,5.33334c-1.38071,0 -2.5,-2.38782 -2.5,-5.33334c0,-2.94552 1.11929,-5.33334 2.5,-5.33334c1.38071,0 2.5,2.38782 2.5,5.33334z" fill="#1a1a1a" stroke="none" stroke-width="0" stroke-linecap="butt"/><path d="M94.55885,146.21607c-0.6986,-5.00853 -2.69981,-9.33085 -5.65202,-13.8491c-3.45719,-5.29111 -7.34301,-11.06207 -12.68781,-14.6621c-6.65145,-4.48013 -14.77718,-7.31889 -22.69059,-8.2087c-3.09264,0.00468 -6.50098,-0.38928 -9.55629,-0.01491c-3.98699,0.48853 -8.1441,1.98198 -12.09144,3.88915c0.67917,0.02847 1.28291,0.21721 1.72732,0.72106c2.44655,2.77376 -1.76515,6.24698 -3.17357,7.67629c-2.94859,2.99231 -5.78917,6.05906 -8.45385,9.27192l0.73968,-0.6164c0.43538,-0.36806 0.99831,-0.58995 1.61307,-0.58995c1.38071,0 2.5,1.11929 2.5,2.5c0,0.32934 -0.06368,0.64381 -0.17941,0.93176l-0.97977,2.61272l-0.02815,-0.01056c-0.01444,0.06266 -0.02979,0.1252 -0.04611,0.18759c-0.42714,1.63381 -1.72467,2.90726 -2.48008,4.41761c-1.40158,2.8023 -2.53579,5.73084 -3.84992,8.57519c-1.43672,3.1097 -2.63231,6.28863 -3.76231,9.50037c0.1555,-0.13163 0.30782,-0.26607 0.45526,-0.4048c2.80262,-2.63715 5.80824,-4.95306 8.77591,-7.40198c3.36669,-2.77821 6.23781,-6.00445 9.87015,-8.48512c9.6566,-6.59486 21.40904,-6.43702 32.54644,-6.41795c6.2391,0.76976 13.06295,1.25363 18.72793,4.31117c0.94535,0.51023 3.19935,2.76485 4.20929,3.46384c1.39054,0.96242 2.93596,1.78762 4.46628,2.6029zM97.19782,152.83082c-1.01361,0.1855 -1.9179,-0.41736 -1.9179,-0.41736l-0.8536,-0.57618c-2.35884,-1.34791 -4.95324,-2.57132 -7.18555,-4.11712c-1.35997,-0.94174 -2.32597,-2.4341 -3.79071,-3.20282c-5.02803,-2.6388 -11.09836,-2.99072 -16.6054,-3.68883c-9.82914,0.01891 -18.33641,0.19489 -27.4243,4.4228c-3.5483,1.65076 -6.24363,4.64221 -9.05507,7.24967c-4.6274,4.29165 -9.60546,8.6168 -14.80519,12.39246l0.20767,0.20767l-3.33333,3.33333c-0.45241,0.45241 -1.07741,0.73223 -1.76777,0.73223c-1.38071,0 -2.5,-1.11929 -2.5,-2.5c0,-0.11851 0.00825,-0.23509 0.0242,-0.34921l0.32844,-2.62754l0.0922,0.01152l-0.04799,-0.26138c2.3976,-7.14777 5.06801,-13.92691 8.15592,-20.79761c0.13883,-0.3089 0.35971,-0.82888 0.63325,-1.46701c-0.35415,0.31686 -0.73915,0.57588 -1.19402,0.70651c-0.18924,0.05434 -0.38003,0.09738 -0.57214,0.13084l0.01981,0.07923l-2.61228,0.65307c-0.21047,0.05753 -0.43201,0.08824 -0.66073,0.08824c-1.38071,0 -2.5,-1.11929 -2.5,-2.5c0,-0.46716 0.12813,-0.90439 0.35117,-1.27847l1.31155,-2.29521l0.02363,0.0135l0.02035,-0.08749c3.91034,-5.85279 8.38076,-11.47131 13.35886,-16.45344c0.27275,-0.27297 0.52674,-0.57672 0.77491,-0.89027c-0.13023,0.02196 -0.25929,0.04804 -0.38669,0.07982c-0.97337,0.24281 -1.96185,0.42729 -2.95859,0.5638l0.12871,0.38612l-2.94464,0.98155c-0.2642,0.09499 -0.54902,0.14675 -0.84593,0.14675c-1.38071,0 -2.5,-1.11929 -2.5,-2.5c0,-0.69036 0.27982,-1.31536 0.73223,-1.76777l2,-2l0.06912,0.06912l0.11368,-0.23471c6.95834,-4.66356 15.81821,-9.47286 24.27951,-10.54791c3.32654,-0.42265 7.07297,-0.0195 10.44371,-0.01491c8.86187,0.97401 17.86972,4.10434 25.30941,9.12463c5.86369,3.95681 10.18725,10.18037 13.97885,16.00457c4.25902,6.54219 6.7246,12.84324 6.74016,20.70031c0,0 0,2.5 -2.5,2.5c-0.04601,0 -0.09118,-0.00085 -0.13551,-0.00251z" fill="#000000" stroke="none" stroke-width="0.5" stroke-linecap="butt"/><path d="M90.04437,143.59987c-1.00994,-0.699 -3.26475,-2.95018 -4.2101,-3.46041c-5.66498,-3.05753 -12.39042,-3.52377 -18.62952,-4.29353c-11.1374,-0.01907 -22.89294,-0.20353 -32.54953,6.39132c-3.63235,2.48067 -6.50604,5.70152 -9.87274,8.47973c-2.96766,2.44892 -5.97451,4.76276 -8.77713,7.3999c-0.14743,0.13873 -0.3847,0.32594 -0.5402,0.45757c1.13,-3.21174 2.32198,-6.39764 3.7587,-9.50734c1.31413,-2.84436 2.44542,-5.78232 3.847,-8.58462c0.7554,-1.51035 2.05204,-2.79024 2.47919,-4.42405c0.01631,-0.06239 0.03164,-0.12524 0.04609,-0.1879l0.02815,0.01058l0.97967,-2.6172c0.11572,-0.28795 0.17947,-0.60407 0.17947,-0.93341c0,-1.38071 -1.11893,-2.50379 -2.49964,-2.50379c-0.61475,0 -1.07842,0.23391 -1.5138,0.60197l-0.8392,0.60664c2.66468,-3.21286 5.51025,-6.29742 8.45884,-9.28972c1.40842,-1.42931 5.62826,-4.91434 3.1817,-7.6881c-0.44441,-0.50385 -1.04884,-0.69181 -1.72802,-0.72029c3.94734,-1.90717 8.12123,-3.41297 12.10822,-3.9015c3.05531,-0.37437 6.48118,0.01524 9.57383,0.01056c7.91341,0.88981 16.0819,3.74807 22.73336,8.2282c5.3448,3.60003 9.24088,9.39909 12.69807,14.69019c2.95221,4.51826 4.95122,8.85772 5.64982,13.86625c-1.53032,-0.81528 -3.17169,-1.66862 -4.56223,-2.63104z" data-paper-data="{&quot;noHover&quot;:false,&quot;origItem&quot;:[&quot;Path&quot;,{&quot;applyMatrix&quot;:true,&quot;segments&quot;:[[[94.55885,146.21607],[-1.53032,-0.81528],[-0.6986,-5.00853]],[[88.90682,132.36697],[2.95221,4.51826],[-3.45719,-5.29111]],[[76.21901,117.70487],[5.3448,3.60003],[-6.65145,-4.48013]],[[53.52842,109.49617],[7.91341,0.88981],[-3.09264,0.00468]],[[43.97212,109.48127],[3.05531,-0.37437],[-3.98699,0.48853]],[[31.88069,113.37042],[3.94734,-1.90717],[0.67917,0.02847]],[[33.608,114.09148],[-0.44441,-0.50385],[2.44655,2.77376]],[[30.43443,121.76777],[1.40842,-1.42931],[-2.94859,2.99231]],[[21.98059,131.03969],[2.66468,-3.21286],[0,0]],[[22.72027,130.42328],[0,0],[0.43538,-0.36806]],[[24.33333,129.83333],[-0.61475,0],[1.38071,0]],[[26.83333,132.33333],[0,-1.38071],[0,0.32934]],[[26.65393,133.26509],[0.11572,-0.28795],[0,0]],[25.67416,135.87781],[[25.646,135.86725],[0,0],[-0.01444,0.06266]],[[25.5999,136.05484],[0.01631,-0.06239],[-0.42714,1.63381]],[[23.11982,140.47245],[0.7554,-1.51035],[-1.40158,2.8023]],[[19.2699,149.04765],[1.31413,-2.84436],[-1.43672,3.1097]],[[15.50759,158.54802],[1.13,-3.21174],[0.1555,-0.13163]],[[15.96284,158.14322],[-0.14743,0.13873],[2.80262,-2.63715]],[[24.73875,150.74123],[-2.96766,2.44892],[3.36669,-2.77821]],[[34.6089,142.25611],[-3.63235,2.48067],[9.6566,-6.59486]],[[67.15534,135.83816],[-11.1374,-0.01907],[6.2391,0.76976]],[[85.88328,140.14933],[-5.66498,-3.05753],[0.94535,0.51023]],[[90.09256,143.61318],[-1.00994,-0.699],[1.39054,0.96242]]],&quot;closed&quot;:true}]}" fill="#ff0000" stroke="none" stroke-width="0.5" stroke-linecap="butt"/><path d="M73.13527,176.46967c0.66921,0.53033 0,1.06066 0,1.06066l-0.24335,0.13841c-2.69647,4.26367 -5.82745,4.41459 -11.36218,4.41459c0,0 -0.94641,0 -0.94641,-0.75c0,-0.75 0.94641,-0.75 0.94641,-0.75c4.87523,0 7.31145,0.16085 9.66919,-3.58541l0.59791,-0.52825c0,0 0.66921,-0.53033 1.33843,0z" fill="#000000" stroke="none" stroke-width="0.5" stroke-linecap="butt"/></g></g></svg>