<svg version="1.1" xmlns="http://www.w3.org/2000/svg" xmlns:xlink="http://www.w3.org/1999/xlink" width="125.23687" height="161.25644" viewBox="0,0,125.23687,161.25644"><g transform="translate(-188.40467,-131.78314)"><g data-paper-data="{&quot;isPaintingLayer&quot;:true}" fill-rule="nonzero" stroke-linecap="butt" stroke-linejoin="miter" stroke-miterlimit="10" stroke-dasharray="" stroke-dashoffset="0" style="mix-blend-mode: normal"><path d="M238.12501,287.75001l6.75,-63.5l16.75,1.5l20,62.25z" fill="#008eff" stroke="#000000" stroke-width="10"/><path d="M265.83333,222.33335c0,3.6819 -5.37749,8.33333 -12.83333,8.33333c-7.45584,0 -13.16667,-6.98477 -13.16667,-10.66667c0,-3.6819 5.04416,-4.33333 12.5,-4.33333c7.45584,0 13.5,2.98477 13.5,6.66667z" fill="#00feff" stroke="#000000" stroke-width="2"/><path d="M259.16668,222.1667c0,1.19662 -2.68629,2.16667 -6,2.16667c-3.31371,0 -6,-0.97005 -6,-2.16667c0,-1.19662 2.68629,-2.16667 6,-2.16667c3.31371,0 6,0.97005 6,2.16667z" fill="#ffffff" stroke="#000000" stroke-width="2"/><path d="M270.62501,257.25001c0,2.5 -2.5,2.5 -2.5,2.5c-1.19088,0 -2.83557,0 -4.50174,0c-0.02222,4.88171 -0.25033,9.75381 -0.25137,14.62453l-0.2593,2.62423c0,0 -0.24876,2.48759 -2.73635,2.23883c-2.48759,-0.24876 -2.23883,-2.73635 -2.23883,-2.73635l0.2407,-2.37577c-0.00103,-4.78773 0.22295,-9.57676 0.24513,-14.37547c-0.03168,-0.00025 -0.48573,-0.00721 -0.99824,-0.20285c0,2.15095 0,4.30191 0,6.45286v1c0,0 0,2.5 -2.5,2.5c-2.5,0 -2.5,-2.5 -2.5,-2.5c0,-2.28286 0,-5.21489 0,-7.75c-0.66667,0 -1.33333,0 -2,0c0,0 -2.5,0 -2.5,-2.5c0,-2.5 2.5,-2.5 2.5,-2.5c3.33333,0 6.66667,0 10,0l1.39645,-0.22487c0,0 1.37147,-0.19592 2.21837,0.72487c0.6284,0 1.25679,0 1.88519,0h2c0,0 2.5,0 2.5,2.5z" fill="#00feff" stroke="none" stroke-width="0.5"/><path d="M295.52747,201.14019c0,-0.79904 0.64775,-1.4468 1.4468,-1.4468c0.79904,0 1.4468,0.64775 1.4468,1.4468c0,0.79904 -0.64775,1.4468 -1.4468,1.4468c-0.79904,0 -1.4468,-0.64775 -1.4468,-1.4468z" fill="#ff8787" stroke="none" stroke-width="0.5"/><path d="M224.05405,223.66722c-1.00632,0.13403 -2.06972,0.1906 -3.14279,0.2252c-0.59299,1.25796 -2.14744,1.25796 -2.14744,1.25796c-5.59442,-0.04991 -9.21405,3.096 -12.24269,7.76799c-0.87835,1.35495 -1.00884,3.34258 -1.79721,4.74437c0.99122,-0.7583 2.02194,-1.46906 3.09863,-2.09862c1.75344,-1.02527 3.6952,-1.68965 5.51195,-2.59802l0.07219,-0.00854l-0.00852,-0.01987l2.1671,-0.92876c0.29958,-0.13653 0.63252,-0.21259 0.98323,-0.21259c1.31088,0 2.37356,1.06268 2.37356,2.37356c0,0.2565 -0.04068,0.50349 -0.11595,0.73488l-0.93357,3.11191l-0.23942,-0.07182c-0.28414,2.43261 -0.58247,4.85137 -0.61006,7.32893c-0.00589,0.52904 -0.01956,1.05833 -0.03039,1.5876c0.0485,-0.13674 0.09202,-0.26764 0.12857,-0.3911c1.35932,-4.59091 2.11284,-9.34906 3.4781,-13.91425c0.67007,-2.24061 1.37366,-4.48279 2.32136,-6.62082c0.34104,-0.76941 0.67941,-1.55975 1.13336,-2.26803zM210.85255,222.31395c0.12348,-0.16969 0.21988,-0.26608 0.21988,-0.26608l0.73685,-0.65089c1.00342,-0.60383 2.00685,-1.20767 3.01027,-1.8115c3.13613,-0.40379 7.43117,-1.48614 10.56379,-0.74682c1.5498,0.36577 3.6031,0.53745 4.36815,1.93401c0.70745,1.29141 -0.45662,2.92604 -0.94474,4.31526c-1.36835,3.89449 -3.36739,7.30823 -4.23931,11.47107c-1.0494,5.01019 -2.00875,10.82443 -4.19003,15.46666c-0.68263,1.45277 -1.01593,3.74041 -2.58888,4.06034c-1.70469,0.34674 -3.354,-1.32082 -4.5163,-2.61515c-0.81016,-0.90218 -0.83306,-2.29982 -0.97837,-3.50364c-0.35039,-2.90289 -0.4181,-8.06601 0.44126,-11.51884c-0.90224,0.39458 -1.79837,0.8005 -2.65149,1.2898c-1.42304,0.81617 -2.53649,2.28203 -4.12811,2.67941c-1.8267,0.45608 -4.25892,1.03633 -5.64324,-0.2398c-1.60622,-1.48067 0.10876,-7.58366 0.75138,-9.23267c1.82674,-4.68754 5.42875,-8.48697 9.7889,-10.63117z" fill="#000000" stroke="none" stroke-width="0.5"/><path d="M224.08445,223.63076c-0.45395,0.70828 -0.79067,1.50005 -1.13172,2.26946c-0.9477,2.13803 -1.63981,4.39627 -2.30988,6.63688c-1.36526,4.56519 -2.15105,9.38844 -3.51037,13.97935c-0.03655,0.12345 -0.10172,0.16192 -0.15022,0.29866c0.01083,-0.52927 0.02282,-1.05815 0.02871,-1.58719c0.02759,-2.47756 0.3014,-4.88065 0.58555,-7.31326l0.23876,0.07263l0.92351,-3.07864c0.07527,-0.23139 0.11712,-0.4711 0.11712,-0.72759c0,-1.31088 -1.04163,-2.34441 -2.35252,-2.34441c-0.35071,0 -0.67468,0.08041 -0.97426,0.21693l-2.13237,0.92779l0.00852,0.01987l-0.071,0.008c-1.81675,0.90837 -3.73088,1.52744 -5.48432,2.5527c-1.0767,0.62956 -2.20091,1.35392 -3.19213,2.11222c0.78837,-1.40179 0.91943,-3.41441 1.79779,-4.76936c3.02865,-4.67199 6.71262,-7.84791 12.30704,-7.798c0,0 1.55922,0.00239 2.15222,-1.25557c1.07307,-0.03461 2.14324,-0.08646 3.14956,-0.22049z" data-paper-data="{&quot;noHover&quot;:false,&quot;origItem&quot;:[&quot;Path&quot;,{&quot;applyMatrix&quot;:true,&quot;segments&quot;:[[[215.7387,232.93783],[0,0],[-1.05992,0.14117]],[[212.4285,233.17503],[1.13023,-0.03645],[-0.62458,1.32497]],[[210.16667,234.5],[0,0],[-5.89242,-0.05257]],[[197.27183,242.68178],[3.18998,-4.92086],[-0.92514,1.42713]],[[195.37889,247.67887],[0.83036,-1.47646],[1.04402,-0.79869]],[[198.64258,245.46846],[-1.13405,0.6631],[1.84684,-1.07988]],[[204.44814,242.73205],[-1.91352,0.95676],[0,0]],[204.52418,242.72306],[204.51521,242.70213],[[206.79775,241.7239],[0,0],[0.31554,-0.1438]],[[207.83335,241.49999],[-0.36939,0],[1.38071,0]],[[210.33335,243.99999],[0,-1.38071],[0,0.27016]],[[210.21122,244.77402],[0.07928,-0.24372],[0,0]],[209.22792,248.0517],[[208.97575,247.97605],[0,0],[-0.29928,2.56219]],[[208.33319,255.69538],[0.02906,-2.60954],[-0.0062,0.55722]],[[208.30118,257.36755],[0.01141,-0.55746],[0.05108,-0.14402]],[[208.4366,256.95562],[-0.0385,0.13003],[1.43173,-4.83546]],[[212.09997,242.30018],[-1.43798,4.80837],[0.70576,-2.35996]],[[214.54498,235.32668],[-0.99818,2.25192],[0.35921,-0.81039]],[[215.73871,232.93784],[-0.47813,0.74601],[0,0]]],&quot;closed&quot;:true,&quot;fillColor&quot;:[0,0,0,1]}]}" fill="#ff00f5" stroke="none" stroke-width="0.5"/><path d="M273.71522,219.82365c-0.49029,-2.45145 1.96116,-2.94174 1.96116,-2.94174l1.84687,-0.36258c3.5728,-0.4459 7.30868,-1.04132 10.91621,-0.67104c6.3893,0.65579 14.92948,4.79219 19.69855,8.92977c1.39389,1.20932 4.6595,4.53556 5.03842,6.35023c0.37736,1.80719 1.02032,4.44481 -0.48226,5.51748c-1.62162,1.15766 -7.0141,-1.5334 -8.87618,-2.36122c-0.97732,-0.43448 -1.96041,-0.85625 -2.93165,-1.30416c-0.65926,-0.30404 -2.00234,-1.66255 -1.9659,-0.93747c0.03657,0.72765 0.58726,1.44217 0.40562,2.14773c-0.01594,0.06191 -0.03231,0.12368 -0.04909,0.18532l0.02729,0.0042l-0.66076,4.29496c-0.16665,1.21902 -1.21206,2.15823 -2.47683,2.15823c-0.90946,0 -1.70549,-0.48562 -2.14294,-1.21171l-1.63989,-2.62382c-3.03443,-4.78217 -8.58748,-12.41046 -14.09499,-14.32366c0,0 -0.76255,-0.28596 -1.25398,-0.96668l-0.37792,0.07731c0,0 -2.45145,0.49029 -2.94174,-1.96116zM284.83669,220.75442c3.57714,2.68815 6.81824,6.47867 9.43026,10.11244c0.2824,-1.8692 1.73458,-3.33689 4.84209,-3.6995c1.02233,-0.11929 5.72783,2.09856 6.73966,2.54814c0.08956,0.0398 0.23093,0.08878 0.40754,0.14848c-1.95029,-2.05662 -4.23791,-3.37809 -6.83267,-4.60758c-3.49421,-1.65568 -7.58659,-4.05697 -11.52967,-4.43797c-1.00936,-0.09753 -2.03142,-0.10796 -3.05721,-0.06402z" fill="#000000" stroke="none" stroke-width="0.5"/><path d="M284.79143,220.73311c1.02579,-0.04394 2.05118,-0.03948 3.06054,0.05805c3.94308,0.381 8.12689,2.80264 11.6211,4.45832c2.59476,1.22949 4.87961,2.57563 6.8299,4.63225c-0.17661,-0.0597 -0.41146,-0.1442 -0.50102,-0.184c-1.01183,-0.44958 -5.62392,-2.63172 -6.64625,-2.51243c-3.10751,0.36261 -4.6186,1.86084 -4.901,3.73004c-2.61202,-3.63377 -5.88612,-7.49407 -9.46326,-10.18222z" data-paper-data="{&quot;noHover&quot;:false,&quot;origItem&quot;:[&quot;Path&quot;,{&quot;applyMatrix&quot;:true,&quot;segments&quot;:[[[298.83667,230.75439],[0,0],[3.57714,2.68815]],[[308.26693,240.86683],[-2.61202,-3.63377],[0.2824,-1.8692]],[[313.10902,237.16733],[-3.10751,0.36261],[1.02233,-0.11929]],[[319.84868,239.71547],[-1.01183,-0.44958],[0.08956,0.0398]],[[320.25622,239.86395],[-0.17661,-0.0597],[-1.95029,-2.05662]],[[313.42355,235.25637],[2.59476,1.22949],[-3.49421,-1.65568]],[[301.89388,230.8184],[3.94308,0.381],[-1.00936,-0.09753]],[[298.83667,230.75438],[1.02579,-0.04394],[0,0]]],&quot;closed&quot;:true,&quot;fillColor&quot;:[0,0,0,1]}]}" fill="#ff00f5" stroke="none" stroke-width="0.5"/><path d="M301.21424,193.57873c0,10.02343 -8.66731,18.14903 -19.35896,18.14903c-10.69165,0 -19.35896,-8.1256 -19.35896,-18.14903c0,-10.02343 8.66731,-18.14903 19.35896,-18.14903c10.69164,0 19.35896,8.1256 19.35896,18.14903z" fill="#f9ff36" stroke="#000000" stroke-width="6"/><path d="M233.37285,178.47324c0,11.2143 -9.33896,20.30529 -20.85909,20.30529c-11.52015,0 -20.85909,-9.09099 -20.85909,-20.30529c0,-11.2143 9.33896,-20.30529 20.85909,-20.30529c11.52015,0 20.85909,9.09099 20.85909,20.30529z" fill="#f9ff36" stroke="#000000" stroke-width="6.5"/><path d="M203.65205,179.53865c0,-1.13873 0.92313,-2.06186 2.06186,-2.06186c1.13873,0 2.06186,0.92313 2.06186,2.06186c0,1.13873 -0.92313,2.06186 -2.06186,2.06186c-1.13873,0 -2.06186,-0.92313 -2.06186,-2.06186z" fill="#ff8787" stroke="none" stroke-width="0.5"/><path d="M262.75908,173.93602c2.55626,-3.13825 5.2075,-6.23175 7.75864,-9.39627c1.4964,-2.51034 2.7521,-5.23063 4.89183,-7.18779l3.69448,-5.39964c0.59027,-0.88877 1.60033,-1.47464 2.74723,-1.47464c1.82007,0 3.29554,1.47546 3.29554,3.29554c0,0.60234 -0.16159,1.16693 -0.44379,1.65281l-2.16796,3.90232l-0.04589,-0.0255l-0.01774,0.13503c-0.62427,0.94332 -1.26768,1.86536 -1.92604,2.77203c-0.32607,0.88961 -0.83276,1.70693 -1.42452,2.49039c1.70377,-1.99939 3.43537,-3.96088 5.48022,-5.31023l4.51143,-4.79341c0.60134,-0.64198 1.45666,-1.04311 2.40567,-1.04311c1.82007,0 3.29554,1.47546 3.29554,3.29554c0,0.81037 -0.2925,1.55244 -0.77768,2.12637l-2.18319,2.61981l-0.05589,-0.04656l-0.04232,0.15912c-0.85533,0.85484 -1.69284,1.72982 -2.51497,2.62145c-0.70838,1.66962 -2.1007,2.92151 -3.59882,4.10619c-3.4715,4.14598 -6.713,8.51583 -9.94126,12.80063c-0.02635,0.03497 -0.05253,0.06984 -0.07857,0.10464c0.0214,-0.00922 0.04258,-0.0181 0.0635,-0.02666c0.06238,-0.02551 0.12495,-0.05044 0.18768,-0.07482l-0.01547,-0.02784l3.90232,-2.16796c0.48587,-0.2822 1.05047,-0.44379 1.65281,-0.44379c1.82007,0 3.29554,1.47546 3.29554,3.29554c0,0.65983 -0.19391,1.27435 -0.52786,1.78972l-2.1701,3.47215l-0.21781,-0.13613l-0.1758,0.64686c-3.67218,2.7029 -6.29149,4.53015 -10.26053,6.01253c2.08276,2.09349 4.18341,4.17263 5.79224,6.63091l4.47617,4.82048c0.55002,0.58888 0.88665,1.37962 0.88665,2.24898c0,1.82007 -1.47546,3.29554 -3.29554,3.29554c-0.60234,0 -1.16693,-0.16159 -1.65281,-0.44379l-3.90232,-2.16796l0.05828,-0.10489l-0.32112,-0.0577c-0.38227,-0.31768 -0.76178,-0.60672 -1.13582,-0.87623c-0.41199,1.35017 -1.66758,2.33236 -3.15257,2.33236c-0.63958,0 -1.23659,-0.18218 -1.74199,-0.4975l-4.34762,-2.60857l0.02975,-0.04958l-0.17309,-0.04153c-0.7507,-0.57619 -1.4827,-1.19325 -2.17078,-1.85484c-0.5088,1.16332 -1.66989,1.97618 -3.02082,1.97618c-0.85228,0 -1.62896,-0.32352 -2.214,-0.85445l-0.59869,-0.53882c-0.2264,0.04915 -0.46145,0.07505 -0.70257,0.07505c-0.91004,0 -1.73392,-0.36886 -2.33029,-0.96523l-0.69917,-0.69917l-0.35907,1.34649c-0.35056,1.44329 -1.65141,2.51495 -3.20254,2.51495c-1.12656,0 -2.12111,-0.56528 -2.71546,-1.42767c-0.56274,0.85399 -1.36463,1.6408 -2.0542,2.28749c-2.89595,2.71592 -4.9133,4.53313 -7.36931,6.11535l0.4083,0.4083l-2.63642,2.63642v0c-0.59637,0.59637 -1.42027,0.96523 -2.33029,0.96523c-1.82007,0 -3.29554,-1.47546 -3.29554,-3.29554c0,-0.61583 0.1689,-1.19218 0.46291,-1.68531l1.66707,-2.91739c-6.05205,4.91378 -12.45623,9.5487 -19.1943,13.34106l0.36686,0.48916l-5.24624,3.93468c-0.5553,0.42593 -1.25005,0.67907 -2.00396,0.67907c-1.82007,0 -3.29554,-1.47546 -3.29554,-3.29554c0,-0.48694 0.1056,-0.9492 0.29517,-1.36514l1.28953,-3.00889l0.14763,0.06325l0.02842,-0.41456c3.47696,-4.67872 7.25064,-9.12466 11.02853,-13.56536c-0.23763,-0.70577 -0.1403,-1.47534 0.1844,-2.26394c-0.01252,0.00335 -0.02503,0.00674 -0.03756,0.0101c-0.97681,0.2623 -8.18181,2.27796 -9.8392,1.86379c-2.32944,-0.58211 -5.87502,-0.85513 -6.46154,-3.18347c-0.64433,-2.55783 2.26197,-4.8248 3.92936,-6.86868c0.3751,-0.4598 7.03875,-5.75484 8.85197,-7.11454c-1.73741,-0.2343 -3.94611,0.19588 -5.08711,-1.11229c-8.58915,-9.84732 4.66763,-11.48043 11.17175,-11.58893c-0.6136,-0.44763 -1.15899,-0.95389 -1.53448,-1.60617c-0.112,-0.19457 -0.21742,-0.39202 -0.31696,-0.59204l-0.06531,0.03561l-2.60716,-4.77983c-0.27469,-0.48108 -0.43166,-1.03807 -0.43166,-1.63171c0,-1.82007 1.47546,-3.29554 3.29554,-3.29554c0.27026,0 0.53293,0.03254 0.78428,0.0939l3.88526,0.86339l-0.01752,0.07882l0.27523,-0.01051c3.35414,1.34147 7.05488,2.73873 10.19143,4.74369c-0.80892,-1.44461 -1.6287,-2.8833 -2.44602,-4.32285c-1.16046,-2.04397 -2.9313,-3.86344 -3.43136,-6.16005c-0.03133,-0.14389 -0.05798,-0.28816 -0.08034,-0.43276l-0.05476,0.01369l-0.86089,-3.44355c-0.07584,-0.27745 -0.11632,-0.56949 -0.11632,-0.87099c0,-1.82007 1.47546,-3.29554 3.29554,-3.29554c0.82446,0 1.5782,0.30276 2.15612,0.80315l3.20978,2.74515c1.81372,1.4885 3.60945,3.00036 5.37884,4.54216c-0.01306,-0.05977 -0.02568,-0.11967 -0.03789,-0.17974c-0.02207,-0.10872 -0.04287,-0.21757 -0.06245,-0.32654l-0.04742,0.01404l-1.84931,-6.24659c-0.10213,-0.31796 -0.15729,-0.65697 -0.15729,-1.00886c0,-1.82007 1.47546,-3.29554 3.29554,-3.29554c1.19886,0 2.24821,0.64016 2.82486,1.5973l3.42449,5.47917c2.04224,2.87488 4.06666,5.76252 6.12503,8.6259c0.45876,0.63818 0.96551,1.30095 1.44494,1.98607c0,-2.87233 0,-6.1672 0,-6.1672c0.00293,-2.01982 -0.61055,-4.14003 0.01834,-6.05947c0.03632,-0.11084 0.07395,-0.22115 0.11284,-0.33089l-0.05802,-0.01243l1.30489,-6.0895c0.29334,-1.51955 1.63051,-2.66722 3.23571,-2.66722c1.82007,0 3.29554,1.47546 3.29554,3.29554v3.52983v0c0.00001,6.59108 0.00001,13.18213 0.00012,19.7732c0.00003,1.37976 0.05528,2.71657 0.10352,4.021c0.24675,0.20118 0.46382,0.43738 0.64363,0.70104c0.89916,-1.02884 1.93036,-1.9736 2.78992,-3.02886z" fill="#00feff" stroke="none" stroke-width="0.5"/><path d="M207.89957,158.97461c3.54817,0.31327 7.15723,0.89758 10.58464,1.67634c0.07946,-0.12199 0.17907,-0.24512 0.30218,-0.36823c1.28964,-1.28964 2.57929,0 2.57929,0c1.20867,1.21851 2.81196,2.00914 3.9798,3.26684c0.57014,0.61402 0.55451,1.69084 1.22287,2.19618c0.3344,0.25284 0.02405,-0.83833 0.01858,-1.25753c-0.01416,-1.08501 -0.40102,-5.49408 0.85856,-5.96202c1.08827,-0.40429 2.55487,0.28824 3.92638,1.23147c-0.15327,-0.42604 -0.31913,-0.84924 -0.52005,-1.25056c-1.59873,-3.19336 -2.90324,-6.61118 -3.02498,-10.02644c-0.4313,0.46619 -0.85975,0.9238 -1.24899,1.37812l-1.20093,1.44112c-0.3345,0.4072 -0.84192,0.66695 -1.41003,0.66695c-1.00727,0 -1.82383,-0.81656 -1.82383,-1.82383v-2.43177c-0.48685,-2.61083 0.28867,-5.7187 0.86532,-8.48847c-1.28942,1.86718 -2.94426,3.57238 -4.41463,5.23588c-0.6877,0.77802 -1.0898,2.02502 -2.08772,2.31207c-2.40282,0.69116 -5.13309,-1.98471 -7.29532,-2.43177c-0.17962,-0.03714 -0.27185,0.32639 -0.22279,0.50314c0.24762,0.89234 0.73324,1.70112 1.07345,2.56242c1.00003,2.53169 2.60088,3.91054 4.06611,6.12901c0.67864,1.02752 2.49917,2.13151 1.86654,3.18798c-1.45094,2.42299 -5.58342,2.13061 -8.09445,2.25311zM221.1379,164.9476c-0.89261,0.4697 -1.83036,-0.15547 -1.83036,-0.15547l-0.1602,-0.2345c-5.57125,-1.40317 -11.46989,-1.88353 -17.16721,-2.57728c-0.79761,-1.26306 -2.77243,-2.34438 -2.39284,-3.78915c0.38887,-1.48002 2.55543,-1.73463 3.98655,-2.27646c1.37197,-0.51946 4.78364,-1.12903 7.12035,-0.80621c-0.74373,-0.89207 -1.78181,-2.13934 -1.78887,-2.14864c-1.40759,-1.85103 -3.94257,-6.45216 -3.51798,-8.70208c1.02272,-5.41946 5.95071,-3.14193 8.97474,-1.67029c0.37224,0.18115 0.61706,0.82525 1.01591,0.71436c0.36783,-0.10225 0.13688,-0.77175 0.34406,-1.09243c0.85563,-1.32436 1.92836,-2.49689 2.95518,-3.69341c0.86106,-1.00337 1.87254,-1.86474 2.96502,-2.62935l-0.21957,-0.28542l2.87782,-2.2137c0.30997,-0.24338 0.70074,-0.38853 1.12542,-0.38853c1.00727,0 1.82383,0.81656 1.82383,1.82383c0,0.06343 -0.00323,0.12609 -0.00955,0.18785l-0.24112,2.65222l-0.0148,-0.00134l0.00882,0.05755c-0.34798,2.26512 -0.8941,4.57633 -1.12471,6.87546c0.82889,-1.20509 1.7029,-2.37691 2.60348,-2.99354c0.04635,-0.03172 0.093,-0.06291 0.13995,-0.09354l-0.02041,-0.02296l2.18276,-1.94023c0.32286,-0.28966 0.74961,-0.46586 1.21753,-0.46586c1.00727,0 1.82383,0.81656 1.82383,1.82383c0,0.3408 -0.09347,0.65977 -0.2562,0.93268l-0.95682,1.67443c-2.01595,3.44742 -1.17931,7.68949 0.34002,11.27452c1.04435,2.46424 3.33121,4.99644 3.48685,7.77941c0.00213,0.03816 0.00399,0.07631 0.00556,0.11447l0.02013,-0.00403l0.47897,2.39484c0.02803,0.12707 0.0428,0.25911 0.0428,0.39461c0,1.00727 -0.81656,1.82383 -1.82383,1.82383c-0.49988,0 -0.95279,-0.20112 -1.28224,-0.52682l-1.5333,-1.51449c-0.62969,-0.52406 -1.3225,-0.98358 -1.94043,-1.51967c0.01456,0.60356 -0.06281,1.20014 -0.29582,1.73944c-0.65803,1.52296 -1.44646,3.68138 -3.09088,3.90104c-1.62754,0.21742 -2.59713,-2.01139 -3.93571,-2.96239c-0.65769,-0.46727 -1.3059,-0.95124 -1.93674,-1.45656z" fill="#000000" stroke="none" stroke-width="0.5"/><path d="M207.93152,158.95701c2.51103,-0.12248 6.63541,0.15988 8.08634,-2.26311c0.63264,-1.05646 -1.24758,-2.12615 -1.92624,-3.15367c-1.46523,-2.21848 -3.06243,-3.62118 -4.06245,-6.15287c-0.34023,-0.86131 -0.82325,-1.67422 -1.07086,-2.56658c-0.04904,-0.17673 0.04407,-0.54146 0.22369,-0.50433c2.16223,0.44706 4.90375,3.11341 7.30657,2.42225c0.99793,-0.28705 1.41281,-1.5382 2.10052,-2.31623c1.47037,-1.6635 3.13887,-3.36788 4.42829,-5.23506c-0.57666,2.76978 -1.34425,5.88068 -0.8574,8.4915l0.00965,2.43909c0,1.00727 0.82619,1.84434 1.83348,1.84434c0.5681,0 1.00364,-0.24777 1.33813,-0.65498l1.20255,-1.43563c0.38924,-0.45434 0.88453,-0.94101 1.31583,-1.40718c0.12175,3.41527 1.42566,6.86639 3.02441,10.05975c0.20091,0.40132 0.36567,0.8265 0.51892,1.25252c-1.37153,-0.94323 -2.84028,-1.63265 -3.92853,-1.22837c-1.25958,0.46794 -0.8833,4.8863 -0.86914,5.97129c0.00546,0.41918 0.31444,1.51112 -0.01995,1.25829c-0.66836,-0.50535 -0.6529,-1.58209 -1.22303,-2.1961c-1.16784,-1.2577 -2.77996,-2.04512 -3.98865,-3.26363c0,0 -1.30151,-1.28899 -2.59116,0.00066c-0.12311,0.12311 -0.22387,0.2461 -0.30334,0.36808c-3.4274,-0.77878 -7.06332,-1.38159 -10.61149,-1.69485z" data-paper-data="{&quot;noHover&quot;:false,&quot;origItem&quot;:[&quot;Path&quot;,{&quot;applyMatrix&quot;:true,&quot;segments&quot;:[[[199.8092,149.43915],[0,0],[4.86362,0.4294]],[[214.318,151.73699],[-4.69809,-1.0675],[0.10893,-0.16722]],[[214.73223,151.23224],[-0.16876,0.16876],[1.76777,-1.76777]],[[218.26776,151.23224],[0,0],[1.65678,1.67027]],[[223.72304,155.71023],[-1.60081,-1.72399],[0.78151,0.84165]],[[225.39927,158.72063],[-0.91614,-0.6927],[0.45837,0.34658]],[[225.42473,156.99689],[0.00749,0.57459],[-0.0194,-1.48725]],[[226.60159,148.82451],[-1.72656,0.64142],[1.49173,-0.55417]],[[231.98365,150.51254],[-1.88001,-1.29292],[-0.21008,-0.58398]],[[231.2708,148.79834],[0.27541,0.5501],[-2.19145,-4.37727]],[[227.12433,135.05468],[0.16688,4.68145],[-0.59119,0.63901]],[[225.41228,136.94373],[0.53355,-0.62277],[0,0]],[[223.76611,138.91914],[0,0],[-0.4585,0.55817]],[[221.83333,139.83335],[0.77872,0],[-1.38071,0]],[[219.33333,137.33335],[0,1.38071],[0,0]],[[219.33333,134.00002],[0,0],[-0.66734,-3.57877]],[[220.51947,122.36453],[-0.79045,3.79664],[-1.76746,2.55943]],[[214.46816,129.54156],[2.01551,-2.28022],[-0.94266,1.06646]],[[211.60644,132.71081],[1.3679,-0.39347],[-3.29364,0.9474]],[[201.60644,129.37748],[2.96385,0.6128],[-0.24621,-0.05091]],[[201.30105,130.06715],[-0.06723,-0.24227],[0.33942,1.22317]],[[202.77248,133.57956],[-0.46635,-1.18062],[1.37077,3.47029]],[[208.34606,141.98085],[-2.00845,-3.04096],[0.93024,1.40846]],[[210.9046,146.35074],[0.86718,-1.44814],[-1.98886,3.32129]],[[199.80921,149.43917],[3.44198,-0.1679],[0,0]]],&quot;closed&quot;:true,&quot;fillColor&quot;:[0,0,0,1]}]}" fill="#ff00f5" stroke="none" stroke-width="0.5"/><path d="M282.4989,180.12764c-1.28964,-1.28964 0,-2.57929 0,-2.57929l0.87421,-0.72763c-0.49801,-0.85057 0.0478,-1.80573 0.0478,-1.80573c2.75977,-4.74848 8.97435,-9.37657 14.21901,-11.06364c3.4033,-1.09475 7.05171,-1.32976 10.59626,-1.7675l0.11332,0.03281v-0.03632h1.94541c1.00727,0 1.82383,0.81656 1.82383,1.82383c0,0.47167 -0.17904,0.90151 -0.47287,1.22528l-2.18391,2.42657l-0.01583,-0.01426c-0.048,0.05861 -0.09691,0.11653 -0.14684,0.17373c-0.84965,0.97351 -1.98119,1.62933 -3.10886,2.29346c1.48163,0.11623 3.08537,0.65454 4.02589,1.18905c1.18338,0.67253 3.22262,1.27971 3.11789,2.63681c-0.27957,3.62286 -4.14989,2.95947 -6.10975,3.07707c-5.61487,0.3369 -11.22619,0.14539 -16.8154,0.95049c-1.81311,0.26116 -3.55377,1.21704 -5.25057,1.85379l-0.08027,0.31147c0,0 -1.28964,1.28964 -2.57929,0zM288.02271,174.79451c0.58452,-0.18483 1.17922,-0.33601 1.7906,-0.43083c4.60357,-0.71385 9.14764,-0.54354 13.76016,-0.70852c-0.092,-0.02837 -0.18301,-0.06036 -0.27291,-0.09656c-0.0478,-0.01926 -0.0953,-0.0391 -0.14252,-0.05952l-0.00566,0.01699l-2.1487,-0.71623c-0.74526,-0.2292 -1.28698,-0.92311 -1.28698,-1.74354c0,-0.62059 0.30997,-1.1688 0.78353,-1.49824l1.66768,-1.19119c0.99549,-0.75169 1.92162,-1.50625 2.90355,-2.14021c-2.17891,0.26524 -4.34593,0.58906 -6.43928,1.23478c-1.85084,0.57092 -2.77874,1.42059 -4.37041,2.45212c-2.24456,1.45467 -4.51354,2.8932 -6.23905,4.88093z" fill="#000000" stroke="none" stroke-width="0.5"/><path d="M287.9901,174.8109c1.72551,-1.98772 3.99178,-3.45187 6.23635,-4.90652c1.59166,-1.03153 2.57546,-1.9021 4.42629,-2.47303c2.09336,-0.64572 4.27238,-0.95581 6.45129,-1.22106c-0.98191,0.63396 -1.90657,1.3919 -2.90206,2.14358l-1.66628,1.19564c-0.47357,0.32944 -0.78305,0.89238 -0.78305,1.51297c0,0.82043 0.53822,1.52482 1.28348,1.75402l2.08305,0.68446l0.00562,-0.01691c0.04722,0.02041 0.09471,0.0403 0.1425,0.05954c0.08989,0.03622 0.24746,0.0981 0.33945,0.12647c-4.61251,0.16501 -9.22153,-0.00211 -13.82512,0.71174c-0.61137,0.0948 -1.20699,0.24424 -1.79153,0.42908z" data-paper-data="{&quot;noHover&quot;:false,&quot;origItem&quot;:[&quot;Path&quot;,{&quot;applyMatrix&quot;:true,&quot;segments&quot;:[[[309.63725,171.12411],[0,0],[0.80124,-0.25336]],[[312.09169,170.53357],[-0.83803,0.12995],[6.31031,-0.97851]],[[330.9533,169.56236],[-6.32256,0.22617],[-0.12609,-0.03889]],[[330.57922,169.43],[0.12322,0.04964],[-0.06552,-0.02639]],[[330.38387,169.34842],[0.06472,0.02798],[0,0]],[330.37611,169.37171],[[327.4308,168.38994],[0,0],[-1.02156,-0.31417]],[[325.66668,166],[0,1.1246],[0,-0.85068]],[[326.7407,163.9463],[-0.64913,0.45157],[0,0]],[[329.02664,162.31349],[0,0],[1.36456,-1.03036]],[[333.00665,159.37983],[-1.34595,0.86898],[-2.98672,0.36358]],[[324.18006,161.0724],[2.86946,-0.88513],[-2.53701,0.78259]],[[318.18936,164.43363],[2.18176,-1.41397],[-3.07671,1.99397]],[[309.63725,171.12412],[2.36522,-2.72466],[0,0]]],&quot;closed&quot;:true,&quot;fillColor&quot;:[0,0,0,1]}]}" fill="#ff00f5" stroke="none" stroke-width="0.5"/><path d="M226.06509,196.37475c-0.30252,-0.10084 -0.53453,-0.23696 -0.71142,-0.39291c-6.09501,1.24748 -11.63612,6.09767 -14.6804,11.51093c1.34358,-1.21343 2.95004,-2.11121 4.6333,-3.11493c1.64542,-0.98115 3.14689,-2.3052 4.97532,-2.8769c1.41633,-0.44282 3.08911,-1.65683 4.36136,-0.89299c2.33526,1.4021 1.02959,4.81207 1.3493,6.78202c0.10179,0.62721 0.45297,1.18833 0.71761,1.76601c0.08769,0.19141 0.18193,0.67775 0.33636,0.53465c0.18395,-0.17047 -0.16278,-0.49903 -0.11019,-0.74423c0.3347,-1.56078 1.4777,-6.48018 2.37788,-7.33183c0.51005,-0.48256 1.42676,0.71024 2.06474,0.41702c0.41836,-0.19227 0.00538,-0.92127 0.03251,-1.3809c0.06532,-1.10686 -0.40768,-2.42083 0.24473,-3.31736c0.82355,-1.13169 2.32674,-1.6362 3.66299,-2.05255c0.70125,-0.21849 1.57654,0.52301 2.1994,0.13374c-0.74958,-1.64509 -1.08733,-3.51857 -1.02689,-5.32538c0.01538,-0.45997 0.7582,-0.97822 0.43845,-1.30923c-0.53741,-0.55633 -3.42004,0.94451 -3.51091,0.98379c-2.55885,1.10649 -3.49042,1.4584 -4.61467,4.14017l-0.10594,0.32273c-0.03011,0.25608 -0.10707,0.46906 -0.21211,0.64606l-0.11443,0.34859c0,0 -0.57674,1.73023 -2.30699,1.15348zM225.54087,192.26103c0.71333,-1.66322 1.086,-2.82095 2.64894,-4.15721c0.58875,-0.50337 1.40337,-0.65637 2.11078,-0.97193c2.79298,-1.24592 6.39889,-3.4222 9.398,-0.72708c0.88791,0.79792 0.32258,2.3662 0.43845,3.55432c0.20749,2.12765 0.46005,4.25912 0.91852,6.34713c-0.87462,0.9114 -1.4956,2.1662 -2.62385,2.7342c-1.09526,0.55139 -3.22085,-0.92943 -3.67263,0.21054c-0.25142,0.6344 0.42749,1.37506 0.24473,2.03254c-0.39331,1.41499 -0.82826,2.97884 -1.91291,3.96901c-0.4699,0.42898 -1.25102,-0.82792 -1.82609,-0.5557c-0.39401,0.18653 0.347,0.83204 0.32286,1.2673c-0.08851,1.59503 -1.52211,6.8068 -3.40508,7.19268c-3.50362,0.71806 -5.08439,-2.50491 -5.755,-4.99468c-0.25235,-0.93689 -0.11779,-1.94387 -0.03513,-2.91063c0.044,-0.51453 0.82194,-1.17983 0.41171,-1.4935c-0.38233,-0.29235 -0.60645,0.75975 -0.98854,1.05243c-1.42182,1.0891 -3.10398,1.78799 -4.64408,2.70219c-2.05825,1.22179 -3.66083,3.16859 -5.81373,4.21459c-0.06692,0.03251 -0.13424,0.06395 -0.20196,0.09439l0.00875,0.0175l-2.88531,1.44266c-0.25345,0.13343 -0.54213,0.20895 -0.84846,0.20895c-1.00727,0 -1.82383,-0.81656 -1.82383,-1.82383c0,-0.12383 0.01235,-0.24477 0.03585,-0.36166l0.47991,-2.63955l0.05545,0.01008l-0.00746,-0.20949c3.31928,-7.83695 10.78338,-14.7618 19.37014,-16.20529z" fill="#000000" stroke="none" stroke-width="0.5"/><path d="M228.34534,195.24607l0.11516,-0.34782c0.10504,-0.177 0.18319,-0.3888 0.2133,-0.64489l0.10649,-0.32224c1.12425,-2.68178 2.10574,-3.08684 4.66459,-4.19333c0.09087,-0.03929 2.97618,-1.53718 3.51359,-0.98084c0.31975,0.33102 -0.42198,0.85065 -0.43738,1.31062c-0.06044,1.80683 0.28302,3.69199 1.03261,5.3371c-0.62286,0.38926 -1.56772,-0.33038 -2.26896,-0.11188c-1.33625,0.41635 -2.76958,0.90018 -3.59311,2.03187c-0.65242,0.89653 -0.17907,2.22634 -0.24438,3.33321c-0.02711,0.45962 0.38406,1.19474 -0.0343,1.38702c-0.638,0.29322 -1.55561,-0.89746 -2.06564,-0.4149c-0.90017,0.85166 -2.06606,5.79068 -2.40076,7.35147c-0.05259,0.24521 0.2938,0.57387 0.10987,0.74434c-0.15443,0.14312 -0.24928,-0.34306 -0.33698,-0.53447c-0.26464,-0.57768 -0.63329,-1.20962 -0.73508,-1.83683c-0.31971,-1.96994 1.00729,-5.31037 -1.32797,-6.71245c-1.27225,-0.76386 -2.98932,0.43504 -4.40565,0.87788c-1.82844,0.57169 -3.26732,1.85826 -4.91274,2.83941c-1.68326,1.0037 -3.35214,1.93924 -4.69573,3.15266c3.04428,-5.41327 8.62972,-10.31659 14.72475,-11.56408c0.17688,0.15595 0.41648,0.29615 0.71902,0.39699c1.73023,0.57674 2.25931,-1.09881 2.25931,-1.09881z" data-paper-data="{&quot;noHover&quot;:false,&quot;origItem&quot;:[&quot;Path&quot;,{&quot;applyMatrix&quot;:true,&quot;segments&quot;:[[[224.70943,200.70504],[2.37171,0.79057],[-0.41469,-0.13823]],[[223.73426,200.16646],[0.24247,0.21378],[-8.35468,1.70998]],[[203.61124,215.94496],[4.17292,-7.42019],[1.8417,-1.6633]],[[209.96229,211.6752],[-2.30731,1.37583],[2.25544,-1.3449]],[[216.78217,207.73173],[-2.50633,0.78363],[1.94143,-0.607]],[[222.76047,206.50768],[-1.74392,-1.04705],[3.20103,1.9219]],[[224.61001,215.80409],[-0.43823,-2.70029],[0.13953,0.85974]],[[225.59366,218.22482],[-0.36276,-0.79184],[0.1202,0.26238]],[[226.05472,218.95768],[-0.21168,0.19618],[0.25214,-0.23367]],[[225.90368,217.93751],[-0.07208,0.33612],[0.45879,-2.13942]],[[229.16313,207.88748],[-1.23389,1.16739],[0.69914,-0.66146]],[[231.99336,208.4591],[-0.87452,0.40193],[0.57346,-0.26356]],[[232.03792,206.56625],[-0.03717,0.63003],[0.08953,-1.51722]],[[232.37338,202.01901],[-0.89429,1.22892],[1.12886,-1.55125]],[[237.39439,199.20551],[-1.83166,0.5707],[0.96122,-0.29949]],[[240.40919,199.38883],[-0.85377,0.53358],[-1.02748,-2.25501]],[[239.00159,192.08912],[-0.08284,2.47668],[0.02109,-0.63051]],[[239.60259,190.2945],[0.4383,0.45373],[-0.73665,-0.76259]],[[234.79004,191.64303],[0.12455,-0.05386],[-3.50753,1.51671]],[[228.46453,197.31813],[1.54105,-3.67602],[0,0]],[[228.3193,197.76051],[0,0],[-0.04127,0.35102]],[[228.02857,198.64609],[0.14398,-0.24263],[0,0]],[227.87171,199.12391]],&quot;closed&quot;:true}]}" fill="#ff00f5" stroke="none" stroke-width="0.5"/><path d="M279.44713,159.74306c-0.25327,0.38994 -0.70152,0.73501 -1.49483,0.73501c-1.82383,0 -1.82383,-1.82383 -1.82383,-1.82383c0,-6.40368 0,-12.80735 0,-19.21102v-2.43177c0,-1.00727 0.81656,-1.82383 1.82383,-1.82383c0.45695,0 0.87463,0.16804 1.19466,0.4457l1.69453,1.45244l-0.017,0.01985c0.04313,0.02767 0.086,0.05574 0.12863,0.08427c1.34139,0.89759 1.22118,2.01225 2.37319,3.0243c0.7263,0.63806 1.45385,-1.34523 2.35709,-1.68996c2.21325,-0.84472 5.77143,-1.40704 7.05547,1.61167c1.6153,3.79749 -1.40855,6.52039 -3.96516,8.30494c-0.13036,0.09099 0.2849,-0.19014 0.44324,-0.17601c1.25474,0.11192 2.67714,-0.12858 3.73905,0.5491c1.08199,0.69046 2.19332,1.91953 2.13887,3.20189c-0.15213,3.58268 -3.10665,5.17681 -5.83489,6.37759c0.00007,0.0059 0.00008,0.01179 0.00008,0.01771c0,0.86796 -0.6063,1.59432 -1.41851,1.77863l-1.9084,0.47711l-0.01107,-0.04428c-0.06868,0.02991 -0.13813,0.0583 -0.20843,0.08507c-1.69607,0.64571 -4.29027,-0.39429 -6.26651,-0.96452zM279.77611,141.95395c0,4.69991 0,9.39982 0,14.09973c1.29091,0.31736 2.54664,0.79114 3.85149,1.04916c0.12173,0.02407 0.24976,0.02006 0.38016,0.00318c0.17975,-0.2506 0.42147,-0.45379 0.70271,-0.58711l1.91008,-0.95503l0.00816,0.0163l0.04011,-0.03957c0.55214,-0.23584 1.11593,-0.44606 1.65643,-0.7075c0.60173,-0.29107 1.25879,-0.514 1.76681,-0.94841c3.57126,-3.05374 -0.77442,-1.34022 -2.49116,-2.34982c-1.13845,-0.66952 -2.54796,-1.77544 -2.47488,-3.09414c0.14952,-2.69844 4.56281,-3.69532 4.30288,-6.77207c-0.06147,-0.72762 -1.54711,-0.20228 -2.18528,0.1526c-0.79484,0.442 -1.21686,1.48689 -2.08405,1.76096c-1.68469,0.53247 -3.99658,-0.27007 -5.38344,-1.62833z" fill="#000000" stroke="none" stroke-width="0.5"/><path d="M285.1566,143.54593c0.86718,-0.27409 1.30001,-1.31822 2.09485,-1.76024c0.63816,-0.35488 2.13241,-0.87714 2.1939,-0.14954c0.25993,3.07674 -4.15015,4.13692 -4.29967,6.83536c-0.07306,1.3187 1.29313,2.36615 2.43156,3.03565c1.71673,1.00959 6.11132,-0.64983 2.54005,2.40391c-0.50802,0.4344 -1.17448,0.66385 -1.77621,0.95491c-0.54048,0.26143 -1.11414,0.47479 -1.66627,0.71062l-0.04038,0.03961l-0.00819,-0.0163l-1.92027,0.95521c-0.28125,0.13333 -0.52575,0.33604 -0.70552,0.58666c-0.13041,0.01688 -0.26006,0.02052 -0.3818,-0.00356c-1.30485,-0.25804 -2.57534,-0.73943 -3.86624,-1.0568c0,-4.69991 0.00082,-9.45598 0.00082,-14.15589c1.38688,1.35825 3.71868,2.15285 5.40337,1.62039z" data-paper-data="{&quot;noHover&quot;:false,&quot;origItem&quot;:[&quot;Path&quot;,{&quot;applyMatrix&quot;:true,&quot;segments&quot;:[[[298.33333,126.10824],[1.90106,1.86181],[0,6.44236]],[[298.33333,145.43532],[0,-6.44236],[1.76951,0.43502]],[[303.61273,146.87345],[-1.78861,-0.35369],[0.16686,0.033]],[[304.13383,146.87782],[-0.17875,0.02313],[0.2464,-0.34352]],[[305.09708,146.07304],[-0.38553,0.18276],[0,0]],[307.7153,144.76393],[307.72648,144.78629],[[307.78146,144.73206],[0,0],[0.75684,-0.32327]],[[310.05199,143.76226],[-0.74086,0.35837],[0.8248,-0.39898]],[[312.47382,142.46225],[-0.69636,0.59545],[4.89528,-4.18588]],[[309.05909,139.24127],[2.3532,1.38389],[-1.56052,-0.91772]],[[305.66667,135],[-0.10016,1.8076],[0.20496,-3.69886]],[[311.56479,125.71725],[0.35631,4.21742],[-0.08426,-0.99736]],[[308.56935,125.92642],[0.87475,-0.48645],[-1.08952,0.60588]],[[305.71265,128.34026],[1.18869,-0.3757],[-2.30927,0.72988]]],&quot;closed&quot;:true}]}" fill="#ff00f5" stroke="none" stroke-width="0.5"/><path d="M239.69777,180.47245c-0.47181,0.91888 -1.62659,0.91888 -1.62659,0.91888c-3.64767,0 -7.29532,0.00216 -10.94299,0c-0.96931,-0.00058 -5.42831,0.24079 -6.33414,-0.71801c-1.47711,-1.56348 -1.5341,-5.534 0.36489,-6.93345c1.67008,-1.23078 5.79332,-0.39401 7.51218,-0.10065c0.75629,0.12907 1.61124,0.19077 2.31072,0.53434c-0.37871,-0.82685 -0.79899,-1.73367 -0.46236,-2.52066c0.46186,-1.07976 1.78571,-1.56829 2.84096,-2.08366c0.47637,-0.23265 1.13424,0.19375 1.58845,-0.07964c0.7312,-0.4401 0.85911,-1.83912 1.70996,-1.90559c1.32577,-0.10356 2.46911,0.9885 3.70365,1.48273c1.15987,2.39309 3.22285,6.09108 2.34449,8.92532c-0.28121,0.90738 -1.25806,1.42371 -1.8871,2.13555zM229.80111,177.74274c-2.01994,-0.35331 -4.08394,-0.86823 -4.90824,-0.97236c-0.50533,-0.06385 -1.03748,-0.28506 -1.52253,-0.12962c-0.42538,0.13633 -0.49314,1.0868 -0.12146,1.33458c0.2391,0.15938 0.54448,-0.21099 0.83133,-0.22813c1.01418,-0.06056 2.03199,-0.0029 3.04798,-0.00352c0.89097,-0.00055 1.78196,-0.00083 2.67292,-0.00094zM234.44778,177.74318c0.78377,0.00016 1.56756,0.00032 2.35133,0.00042c0.43776,-0.37239 0.97224,-0.46146 0.97224,-0.46146l0.46926,0.26618c1.90486,-1.44582 0.22677,-3.96652 -0.51531,-5.96155c-0.50624,-1.25131 0.25523,0.3026 -0.90901,1.03622c-0.65936,0.41548 -1.52643,0.33403 -2.30238,0.40671c-0.19257,0.01805 -0.61803,-0.3238 -0.56351,-0.13825c0.48839,1.66243 4.67267,1.27301 0.50149,4.84822c-0.00137,0.00117 -0.00274,0.00233 -0.00412,0.0035z" fill="#000000" stroke="none" stroke-width="0.5"/><path d="M234.43248,177.77057c4.17116,-3.57518 -0.02504,-3.23533 -0.51343,-4.89777c-0.05452,-0.18556 0.37231,0.15416 0.56488,0.13613c0.77595,-0.07269 1.67867,-0.00648 2.33802,-0.42197c1.16424,-0.73363 0.41121,-2.28513 0.91746,-1.03381c0.74207,1.99502 2.42357,4.58135 0.51872,6.02717l-0.47225,-0.26473c0,0 -0.54608,0.09198 -0.98384,0.46436c-0.78377,-0.00009 -1.5899,-0.00574 -2.37368,-0.00589c0.00138,-0.00115 0.00275,-0.00232 0.00413,-0.0035z" data-paper-data="{&quot;noHover&quot;:false,&quot;origItem&quot;:[&quot;Path&quot;,{&quot;applyMatrix&quot;:true,&quot;segments&quot;:[[[236.19992,175.16599],[0.00189,-0.00159],[1.07436,0.00022]],[[239.42299,175.16656],[-1.07435,-0.00013],[0.60005,-0.51044]],[240.75567,174.53402],[[241.3989,174.8989],[0,0],[2.61107,-1.98184]],[[240.69254,166.72717],[1.01719,2.73466],[-0.69392,-1.71523]],[[239.44654,168.14754],[1.59588,-1.0056],[-0.90381,0.56951]],[[236.29057,168.70504],[1.06362,-0.09964],[-0.26396,0.02473]],[[235.51814,168.51554],[-0.07473,-0.25436],[0.66945,2.27876]],[[236.20556,175.16119],[5.71759,-4.90066],[-0.00187,0.0016]]],&quot;closed&quot;:true}]}" fill="#ff00f5" stroke="none" stroke-width="0.5"/><path d="M227.15931,177.7627c-1.01599,0.00063 -2.10073,-0.06917 -3.11491,-0.00863c-0.28685,0.01712 -0.59209,0.38826 -0.83118,0.22888c-0.37168,-0.24777 -0.30389,-1.21362 0.1215,-1.34997c0.48505,-0.15544 1.01842,0.06146 1.52375,0.12529c0.82431,0.10414 2.95888,0.63585 4.97884,0.98916c-0.89097,0.00011 -1.78701,0.01471 -2.67798,0.01526z" data-paper-data="{&quot;noHover&quot;:false,&quot;origItem&quot;:[&quot;Path&quot;,{&quot;applyMatrix&quot;:true,&quot;segments&quot;:[[[229.83056,175.16538],[-1.2213,0.00015],[-2.76882,-0.4843]],[[223.10263,173.83251],[1.12992,0.14274],[-0.69267,-0.0875]],[[221.01564,173.65484],[0.66487,-0.21307],[-0.58309,0.18687]],[[220.84914,175.4842],[-0.50948,-0.33964],[0.32774,0.21848]],[[221.98868,175.1715],[-0.39319,0.02348],[1.39019,-0.08301]],[[226.16667,175.16667],[-1.39266,0.00086],[1.2213,-0.00075]]],&quot;closed&quot;:true}]}" fill="#ff00f5" stroke="none" stroke-width="0.5"/><path d="M250.59486,194.93049c0.84575,0.41627 0.96152,1.45803 0.96152,1.45803c0.05024,0.59468 -0.06627,1.22809 0.15072,1.78403c0.25437,0.65171 0.80484,1.14864 1.17483,1.74226c0.10077,-2.11266 1.57552,-5.25021 2.90399,-6.25993c-0.13363,-0.43756 -0.25134,-0.80954 -0.34019,-1.04095c-0.09558,-0.24894 -0.13775,-0.62921 -0.39618,-0.69498c-0.53854,-0.13704 -1.10252,0.16581 -1.65818,0.17219c-0.41836,0.0048 -0.86029,-0.29739 -1.24748,-0.13883c-0.89454,0.36632 -1.30552,1.76334 -1.54903,2.97818zM257.15753,197.4494c-0.62177,2.32803 -0.67339,6.56028 -3.40516,7.25088c-1.29472,0.32732 -2.48203,-1.12248 -3.44108,-2.05183c-1.73592,-1.68215 -2.00915,-2.66741 -2.19341,-4.21565c-0.19967,-0.02857 -0.41596,-0.09514 -0.64889,-0.2116c-1.63129,-0.81564 -0.81564,-2.44691 -0.81564,-2.44691l0.09406,-0.06635c0.61713,-2.75252 1.09775,-5.70326 4.00057,-7.12562c0.79233,-0.38824 1.76106,-0.14386 2.64337,-0.13883c1.06998,0.00611 2.23219,-0.27258 3.20537,0.17219c1.95421,0.89316 2.29009,2.9903 2.89411,4.69923c0.23713,0.6709 0.69857,1.30606 0.84942,1.98917l0.0323,-0.01616l1.44266,2.88532c0.13343,0.25345 0.20895,0.54213 0.20895,0.84846c0,1.00727 -0.81656,1.82383 -1.82383,1.82383c-0.676,0 -1.26609,-0.36777 -1.58113,-0.91413l-1.44187,-2.40312l0.03165,-0.019c-0.01727,-0.01986 -0.03442,-0.03981 -0.05147,-0.05989z" fill="#000000" stroke="none" stroke-width="0.5"/><path d="M252.13455,191.91705c0.38718,-0.15857 0.84037,0.14246 1.25875,0.13766c0.55566,-0.00637 1.13318,-0.30586 1.6717,-0.16882c0.25843,0.06576 0.30581,0.44902 0.40137,0.69796c0.08884,0.23142 0.2135,0.60959 0.34714,1.04717c-1.32848,1.00971 -2.8336,4.20749 -2.93437,6.32016c-0.36999,-0.59362 -0.93759,-1.09637 -1.19196,-1.74808c-0.217,-0.55594 -0.11549,-1.20944 -0.16573,-1.80412c0,0 -0.11498,-1.06498 -0.96074,-1.48124c0.24351,-1.21484 0.67931,-2.63436 1.57385,-3.00068z" data-paper-data="{&quot;noHover&quot;:false,&quot;origItem&quot;:[&quot;Path&quot;,{&quot;applyMatrix&quot;:true,&quot;segments&quot;:[[[258.33339,198.72534],[0.33378,-1.66523],[1.15932,0.57059]],[[259.65138,200.72392],[0,0],[0.06887,0.81515]],[[259.85797,203.16936],[-0.29745,-0.76206],[0.34869,0.89333]],[[261.46836,205.55755],[-0.50716,-0.8137],[0.13814,-2.89591]],[[265.44897,196.97682],[-1.821,1.38406],[-0.18318,-0.5998]],[[264.98267,195.54994],[0.12179,0.31721],[-0.13101,-0.34123]],[[264.43961,194.59731],[0.35423,0.09014],[-0.73819,-0.18785]],[[262.16667,194.83333],[0.76167,-0.00874],[-0.57347,0.00658]],[[260.45671,194.64303],[0.53073,-0.21734],[-1.22618,0.50214]]],&quot;closed&quot;:true}]}" fill="#ff00f5" stroke="none" stroke-width="0.5"/><path d="M272.87498,157.75874c-2.51103,-0.12248 -6.64351,0.16988 -8.09445,-2.25311c-0.63264,-1.05646 1.1879,-2.16046 1.86654,-3.18798c1.46523,-2.21848 3.06608,-3.59732 4.06611,-6.12901c0.34023,-0.86131 0.82583,-1.67008 1.07345,-2.56242c0.04904,-0.17673 -0.04318,-0.54028 -0.22279,-0.50314c-2.16223,0.44706 -4.89251,3.12294 -7.29532,2.43177c-0.99793,-0.28705 -1.40002,-1.53406 -2.08772,-2.31207c-1.47037,-1.6635 -3.12521,-3.36868 -4.41463,-5.23588c0.57666,2.76978 1.35218,5.87763 0.86532,8.48847v2.43177c0,1.00727 -0.81656,1.82383 -1.82383,1.82383c-0.5681,0 -1.07553,-0.25974 -1.41003,-0.66695l-1.20093,-1.44112c-0.38924,-0.45434 -0.8177,-0.91195 -1.24899,-1.37812c-0.12175,3.41527 -1.42625,6.83308 -3.02498,10.02644c-0.20091,0.40132 -0.36678,0.82453 -0.52005,1.25056c1.37153,-0.94323 2.83812,-1.63575 3.92638,-1.23147c1.25958,0.46794 0.87271,4.87702 0.85856,5.96202c-0.00546,0.41918 -0.31582,1.51036 0.01858,1.25753c0.66836,-0.50535 0.65273,-1.58217 1.22287,-2.19618c1.16784,-1.2577 2.77113,-2.04833 3.9798,-3.26684c0,0 1.28964,-1.28964 2.57929,0c0.12311,0.12311 0.22272,0.24624 0.30218,0.36823c3.4274,-0.77878 7.03647,-1.36309 10.58464,-1.67634zM259.63665,163.73172c-0.63083,0.5053 -1.27902,0.98929 -1.93674,1.45656c-1.33857,0.95099 -2.30817,3.17981 -3.93571,2.96239c-1.64442,-0.21967 -2.43285,-2.37809 -3.09088,-3.90104c-0.23303,-0.5393 -0.31038,-1.13589 -0.29582,-1.73944c-0.61793,0.53608 -1.31076,0.9956 -1.94043,1.51967l-1.5333,1.51449c-0.32945,0.32572 -0.78236,0.52682 -1.28224,0.52682c-1.00727,0 -1.82383,-0.81656 -1.82383,-1.82383c0,-0.1355 0.01477,-0.26754 0.0428,-0.39461l0.47897,-2.39484l0.02013,0.00403c0.00157,-0.03816 0.00342,-0.0763 0.00556,-0.11447c0.15564,-2.78295 2.4425,-5.31517 3.48685,-7.77941c1.51933,-3.58503 2.35598,-7.8271 0.34002,-11.27452l-0.95682,-1.67443c-0.16271,-0.27291 -0.2562,-0.59188 -0.2562,-0.93268c0,-1.00727 0.81656,-1.82383 1.82383,-1.82383c0.4679,0 0.89466,0.1762 1.21753,0.46586l2.18276,1.94023l-0.02041,0.02296c0.04696,0.03063 0.09362,0.06181 0.13995,0.09354c0.9006,0.61663 1.77459,1.78846 2.60348,2.99354c-0.23061,-2.29914 -0.77674,-4.61035 -1.12471,-6.87546l0.00882,-0.05755l-0.0148,0.00134l-0.24112,-2.65222c-0.00632,-0.06175 -0.00955,-0.12442 -0.00955,-0.18785c0,-1.00727 0.81656,-1.82383 1.82383,-1.82383c0.42468,0 0.81545,0.14515 1.12542,0.38853l2.87782,2.2137l-0.21957,0.28542c1.09249,0.76461 2.10396,1.62599 2.96502,2.62935c1.02682,1.19653 2.09954,2.36906 2.95518,3.69341c0.20718,0.32066 -0.02376,0.99016 0.34406,1.09243c0.39885,0.11088 0.64367,-0.53321 1.01591,-0.71436c3.02404,-1.47163 7.95202,-3.74917 8.97474,1.67029c0.42459,2.24992 -2.11039,6.85104 -3.51798,8.70208c-0.00706,0.00929 -1.04514,1.25655 -1.78887,2.14864c2.33672,-0.32282 5.74837,0.28677 7.12035,0.80621c1.43111,0.54184 3.59768,0.79647 3.98655,2.27646c0.37962,1.44478 -1.59522,2.52611 -2.39284,3.78915c-5.69731,0.69375 -11.59596,1.1741 -17.16721,2.57728l-0.1602,0.2345c0,0 -0.93775,0.62515 -1.83036,0.15547z" data-paper-data="{&quot;index&quot;:null}" fill="#000000" stroke="none" stroke-width="0.5"/><path d="M272.90694,157.77634c-3.54817,0.31327 -7.18407,0.91607 -10.61149,1.69485c-0.07946,-0.12199 -0.18022,-0.24497 -0.30334,-0.36808c-1.28964,-1.28964 -2.59116,-0.00066 -2.59116,-0.00066c-1.20867,1.21851 -2.82079,2.00593 -3.98865,3.26363c-0.57014,0.61402 -0.55468,1.69074 -1.22303,2.1961c-0.3344,0.25284 -0.02541,-0.83911 -0.01995,-1.25829c0.01416,-1.08501 0.39044,-5.50336 -0.86914,-5.97129c-1.08827,-0.40429 -2.55701,0.28514 -3.92853,1.22837c0.15327,-0.42604 0.31799,-0.85122 0.51892,-1.25252c1.59873,-3.19336 2.90266,-6.64447 3.02441,-10.05975c0.4313,0.46619 0.92659,0.95286 1.31583,1.40718l1.20255,1.43563c0.3345,0.4072 0.77002,0.65498 1.33813,0.65498c1.00727,0 1.83348,-0.83707 1.83348,-1.84434l0.00965,-2.43909c0.48685,-2.61083 -0.28074,-5.72174 -0.8574,-8.4915c1.28942,1.86718 2.95792,3.57156 4.42829,5.23506c0.6877,0.77802 1.10258,2.02918 2.10052,2.31623c2.40282,0.69116 5.14434,-1.97519 7.30657,-2.42225c0.17962,-0.03714 0.27273,0.32757 0.22369,0.50433c-0.24762,0.89234 -0.73065,1.70527 -1.07086,2.56658c-1.00003,2.53169 -2.59723,3.93439 -4.06245,6.15287c-0.67864,1.02752 -2.55887,2.09719 -1.92624,3.15367c1.45094,2.42299 5.5753,2.14061 8.08634,2.26311z" data-paper-data="{&quot;noHover&quot;:false,&quot;origItem&quot;:[&quot;Path&quot;,{&quot;applyMatrix&quot;:true,&quot;segments&quot;:[[[199.8092,149.43915],[0,0],[4.86362,0.4294]],[[214.318,151.73699],[-4.69809,-1.0675],[0.10893,-0.16722]],[[214.73223,151.23224],[-0.16876,0.16876],[1.76777,-1.76777]],[[218.26776,151.23224],[0,0],[1.65678,1.67027]],[[223.72304,155.71023],[-1.60081,-1.72399],[0.78151,0.84165]],[[225.39927,158.72063],[-0.91614,-0.6927],[0.45837,0.34658]],[[225.42473,156.99689],[0.00749,0.57459],[-0.0194,-1.48725]],[[226.60159,148.82451],[-1.72656,0.64142],[1.49173,-0.55417]],[[231.98365,150.51254],[-1.88001,-1.29292],[-0.21008,-0.58398]],[[231.2708,148.79834],[0.27541,0.5501],[-2.19145,-4.37727]],[[227.12433,135.05468],[0.16688,4.68145],[-0.59119,0.63901]],[[225.41228,136.94373],[0.53355,-0.62277],[0,0]],[[223.76611,138.91914],[0,0],[-0.4585,0.55817]],[[221.83333,139.83335],[0.77872,0],[-1.38071,0]],[[219.33333,137.33335],[0,1.38071],[0,0]],[[219.33333,134.00002],[0,0],[-0.66734,-3.57877]],[[220.51947,122.36453],[-0.79045,3.79664],[-1.76746,2.55943]],[[214.46816,129.54156],[2.01551,-2.28022],[-0.94266,1.06646]],[[211.60644,132.71081],[1.3679,-0.39347],[-3.29364,0.9474]],[[201.60644,129.37748],[2.96385,0.6128],[-0.24621,-0.05091]],[[201.30105,130.06715],[-0.06723,-0.24227],[0.33942,1.22317]],[[202.77248,133.57956],[-0.46635,-1.18062],[1.37077,3.47029]],[[208.34606,141.98085],[-2.00845,-3.04096],[0.93024,1.40846]],[[210.9046,146.35074],[0.86718,-1.44814],[-1.98886,3.32129]],[[199.80921,149.43917],[3.44198,-0.1679],[0,0]]],&quot;closed&quot;:true,&quot;fillColor&quot;:[0,0,0,1]}],&quot;index&quot;:null}" fill="#ff00f5" stroke="none" stroke-width="0.5"/></g></g></svg>