<svg version="1.1" xmlns="http://www.w3.org/2000/svg" xmlns:xlink="http://www.w3.org/1999/xlink" width="179" height="188.87878" viewBox="0,0,179,188.87878"><g transform="translate(-178.33331,-104.1608)"><g data-paper-data="{&quot;isPaintingLayer&quot;:true}" fill-rule="nonzero" stroke-linecap="butt" stroke-linejoin="miter" stroke-miterlimit="10" stroke-dasharray="" stroke-dashoffset="0" style="mix-blend-mode: normal"><path d="M238.12503,287.75001l6.75,-63.5l16.75,1.5l20,62.25z" fill="#008eff" stroke="#000000" stroke-width="10"/><path d="M265.83333,222.33335c0,3.6819 -5.37749,8.33333 -12.83333,8.33333c-7.45584,0 -13.16667,-6.98477 -13.16667,-10.66667c0,-3.6819 5.04416,-4.33333 12.5,-4.33333c7.45584,0 13.5,2.98477 13.5,6.66667z" fill="#00feff" stroke="#000000" stroke-width="2"/><path d="M259.16668,222.1667c0,1.19662 -2.68629,2.16667 -6,2.16667c-3.31371,0 -6,-0.97005 -6,-2.16667c0,-1.19662 2.68629,-2.16667 6,-2.16667c3.31371,0 6,0.97005 6,2.16667z" fill="#ffffff" stroke="#000000" stroke-width="2"/><path d="M270.62503,257.25001c0,2.5 -2.5,2.5 -2.5,2.5c-1.19088,0 -2.83557,0 -4.50174,0c-0.02222,4.88171 -0.25033,9.75381 -0.25137,14.62453l-0.2593,2.62423c0,0 -0.24876,2.48759 -2.73635,2.23883c-2.48759,-0.24876 -2.23883,-2.73635 -2.23883,-2.73635l0.2407,-2.37577c-0.00103,-4.78773 0.22295,-9.57676 0.24513,-14.37547c-0.03168,-0.00025 -0.48573,-0.00721 -0.99824,-0.20285c0,2.15095 0,4.30191 0,6.45286v1c0,0 0,2.5 -2.5,2.5c-2.5,0 -2.5,-2.5 -2.5,-2.5c0,-2.28286 0,-5.21489 0,-7.75c-0.66667,0 -1.33333,0 -2,0c0,0 -2.5,0 -2.5,-2.5c0,-2.5 2.5,-2.5 2.5,-2.5c3.33333,0 6.66667,0 10,0l1.39645,-0.22487c0,0 1.37147,-0.19592 2.21837,0.72487c0.6284,0 1.25679,0 1.88519,0h2c0,0 2.5,0 2.5,2.5z" fill="#00feff" stroke="none" stroke-width="0.5"/><path d="M203.87407,125.04553c-0.39293,0.26196 -0.71959,0.19255 -0.94645,0.06004c-0.09109,0.0422 -0.19895,0.07355 -0.3266,0.08951c-0.92611,0.11576 -1.04187,-0.81035 -1.04187,-0.81035c-0.18747,-2.54593 -3.86401,-3.70321 -4.74699,-6.0163c-0.26012,-0.68143 -0.79812,-1.67663 -0.26303,-2.17231c1.37036,-1.26942 2.86871,0.16852 3.7081,0.91706c2.20825,1.96924 3.3992,3.70239 3.77635,6.6667l0.09934,-0.02862c0,0 0.51771,0.77657 -0.25886,1.29428z" fill="#00feff" stroke="none" stroke-width="0.5"/><path d="M281.60533,105.86916c0.75322,-0.62751 1.44473,-1.87565 2.40729,-1.68967c0.98054,0.18946 1.44127,1.51033 1.68146,2.47969c0.14946,0.60317 -0.34874,1.20082 -0.63248,1.75367c-0.60854,1.1857 -1.42044,2.26361 -1.9832,3.4717c-1.52462,2.14185 -3.39653,5.31879 -5.62214,6.82099c-0.62436,0.42142 -1.40427,1.33925 -2.0557,1.14561c0.00291,0.24245 0.00478,0.48462 0.00478,0.72636c0,0 0,1.22491 -1.22491,1.22491c-1.22491,0 -1.22491,-1.22491 -1.22491,-1.22491c0,-3.00563 -0.2678,-6.21386 0.53725,-9.15644c0.29581,-1.08124 1.38724,-3.30743 3.06536,-2.77424c0.38159,0.12125 0.54691,0.48155 0.64888,0.90881c0.02531,-0.00156 0.05083,-0.00235 0.07653,-0.00235c0.42193,0 0.79403,0.21333 1.01434,0.53801c1.00005,-1.47158 1.99317,-3.12722 3.30746,-4.22215z" fill="#00feff" stroke="none" stroke-width="0.5"/><path d="M331.3938,178.14254c0.53556,-0.23864 1.07074,-0.50267 1.60647,-0.78121c0.16209,-0.50906 0.54086,-0.95033 0.85914,-1.38543c0.55975,-0.76517 1.11289,-1.40788 1.69249,-1.94971c-0.0622,-0.15911 -0.09938,-0.34932 -0.09938,-0.57671c0,-1.39073 1.39073,-1.39073 1.39073,-1.39073c0.75632,0.00223 1.51007,-0.03393 2.26229,-0.09547c0.55556,-0.17806 1.15453,-0.32455 1.80888,-0.44726l0.05701,0.00989l-0.00165,-0.01655l1.83569,-0.18357c0.05153,-0.00579 0.10392,-0.00876 0.157,-0.00876c0.18019,0 0.35238,0.03427 0.5104,0.09664c2.22763,-0.32982 4.45916,-0.661 6.72138,-0.65294c0.93961,0.00335 1.90929,-0.21802 2.81879,0.01796c2.98998,0.77577 3.96113,1.79605 1.51495,4.53185c0.35272,0.09059 0.6619,0.16949 0.902,0.22204l0.19788,0.2972l0.09245,-0.11094l1.10442,0.92035c0.31051,0.25506 0.50857,0.64199 0.50857,1.07519c0,0.76808 -0.62265,1.39073 -1.39073,1.39073c-0.04107,0 -0.08171,-0.00178 -0.12187,-0.00527l-2.39539,-0.18426l0.00046,-0.00591c-0.01114,0.00101 -0.02227,0.00201 -0.03341,0.00299c-1.03215,0.09068 -2.16934,-0.44508 -3.16445,-0.55757c-1.88973,-0.2136 -4.47576,-0.36006 -6.64508,-0.11894c-0.88506,0.19283 -1.76172,0.39262 -2.63395,0.59138c-1.77136,0.632 -3.43974,1.63589 -5.2563,2.03174c-0.88137,0.19207 -2.10009,1.04173 -2.68298,0.35331c-0.09156,-0.10814 -0.16516,-0.22439 -0.22345,-0.3473l-1.56394,0.55855c-0.15466,0.05936 -0.32262,0.09188 -0.49817,0.09188c-0.76808,0 -1.39073,-0.62265 -1.39073,-1.39073c0,-0.52657 0.29265,-0.98479 0.72417,-1.22089l1.27457,-0.72833l0.0158,0.02766zM346.49849,174.81213c-0.0773,0.02296 -0.15451,0.04611 -0.23164,0.06934c0.04168,0.01039 0.08263,0.02266 0.12273,0.03672c0.03435,-0.03729 0.07071,-0.07271 0.10891,-0.10606z" fill="#00feff" stroke="none" stroke-width="0.5"/><path d="M346.39605,174.96777c-0.0401,-0.01406 -0.13702,-0.06894 -0.1787,-0.07933c0.07713,-0.02323 0.24931,-0.07417 0.32661,-0.09713c-0.0382,0.03335 -0.11356,0.13917 -0.14791,0.17646z" data-paper-data="{&quot;noHover&quot;:false,&quot;origItem&quot;:[&quot;Path&quot;,{&quot;applyMatrix&quot;:true,&quot;segments&quot;:[[[346.49849,174.81213],[-0.0382,0.03335],[-0.0773,0.02296]],[[346.26685,174.88147],[0.07713,-0.02323],[0.04168,0.01039]],[[346.38958,174.91819],[-0.0401,-0.01406],[0.03435,-0.03729]]],&quot;closed&quot;:true,&quot;fillColor&quot;:[0,0,0,1]}]}" fill="#00feff" stroke="none" stroke-width="0.5"/><path d="M182.33034,159.10869c-0.53866,-0.98862 -0.99597,-2.39967 -0.1449,-3.05832c0.55352,-0.42837 1.39559,0.21154 2.04708,0.46736c1.88171,0.73888 3.33886,2.62823 4.30315,4.3055c0,0 0.12826,0.22446 0.13471,0.50666c0.04622,0.0739 0.09058,0.14904 0.13278,0.22562c0.0011,0.002 0.0022,0.004 0.0033,0.006l0.00112,-0.00098l0.88952,1.0166c0.14915,0.16867 0.23967,0.39038 0.23967,0.63324c0,0.52817 -0.42816,0.95633 -0.95633,0.95633c-0.24285,0 -0.46457,-0.09052 -0.63324,-0.23967l-0.99708,-0.87244c-0.27621,-0.21034 -0.56956,-0.40045 -0.87576,-0.5729c-0.10831,0.06846 -0.24546,0.12049 -0.41893,0.14527c-0.94672,0.13524 -1.08196,-0.81147 -1.08196,-0.81147l-0.00269,-0.01903c-0.04658,-0.01717 -0.09328,-0.03407 -0.14008,-0.05072c-1.30453,0.47387 -3.70733,-0.43839 -4.66085,-0.67743l-0.03033,-0.02507l-0.00471,0.01413l-1.12667,-0.37556c-0.39078,-0.12018 -0.67483,-0.48403 -0.67483,-0.91423c0,-0.52817 0.42816,-0.95633 0.95633,-0.95633c0.0365,0 0.07252,0.00205 0.10796,0.00602l1.26231,0.12623l-0.0003,0.00304c0.00401,-0.0006 0.00803,-0.0012 0.01204,-0.00179c0.5501,-0.08113 1.10858,0.03799 1.6587,0.16395z" fill="#00feff" stroke="none" stroke-width="0.5"/><path d="M217.20891,224.98199l-0.99138,1.43435c-2.02589,2.02589 -3.94967,4.01329 -6.10303,5.89677c-1.25332,1.09624 -2.16919,2.63443 -3.63247,3.42901c-0.0388,0.02107 -0.07778,0.04173 -0.11694,0.06201l0.01261,0.01802l-1.99292,1.39504c-0.24731,0.17799 -0.5508,0.28282 -0.87876,0.28282c-0.83175,0 -1.50602,-0.67427 -1.50602,-1.50602c0,-0.25295 0.06236,-0.49133 0.17254,-0.70061l0.78966,-1.57933l0.00853,0.00427l0.0037,-0.0282c1.62863,-2.9649 3.6405,-5.32483 6.05779,-7.54114c-1.12867,0.36209 -2.30467,1.04969 -3.37429,0.63697c-5.03922,-1.94443 -0.68767,-4.3061 0.94909,-4.91578c1.34311,-0.5003 4.68788,-0.03281 6.13593,-0.03281c0,0 0.07366,0 0.18839,0.01629c0.39447,-0.11511 0.78837,-0.23208 1.18108,-0.35287l0.00556,0.00037l-0.00056,-0.00187l1.97451,-0.59235c0.14682,-0.04776 0.30354,-0.07357 0.46628,-0.07357c0.83175,0 1.50602,0.67427 1.50602,1.50602c0,0.52279 -0.26637,0.98336 -0.6708,1.25339c0.2763,0.69796 -0.18454,1.38923 -0.18454,1.38923z" fill="#00feff" stroke="none" stroke-width="0.5"/><path d="M300.58137,231.65322c0.77645,0.7043 1.89982,1.16912 2.31029,2.1337c0.04629,0.10879 0.08679,0.21905 0.12221,0.33061l0.04623,-0.01849l0.81567,2.03917c0.07996,0.18724 0.12423,0.39337 0.12423,0.60983c0,0.85821 -0.69572,1.55392 -1.55392,1.55392c-0.42911,0 -0.81759,-0.17393 -1.09879,-0.45513l-1.24314,-1.24314c-0.78501,-0.79905 -1.64322,-1.42025 -2.52336,-2.05098c0.16174,0.75411 0.19117,1.52057 -0.00604,2.28126c-0.00727,0.02806 -0.01476,0.05605 -0.02244,0.08397l0.01532,0.0017l-0.20512,1.84607c-0.07684,0.78641 -0.7399,1.40095 -1.54649,1.40095c-0.58836,0 -1.10034,-0.32699 -1.36415,-0.80915l-0.74158,-1.29777c-0.11517,0.02261 -0.24165,0.03503 -0.38054,0.03503c-1.55392,0 -1.55392,-1.55392 -1.55392,-1.55392v-1.03595c0,-0.34417 -0.03664,-3.93477 0.08329,-5.0909c-0.05399,-0.15782 -0.08329,-0.32709 -0.08329,-0.50322c0,-0.85821 0.69572,-1.55392 1.55392,-1.55392c0.07011,0 0.13913,0.00464 0.20678,0.01364c2.3326,-1.10821 5.3625,1.75668 7.04486,3.28272z" fill="#00feff" stroke="none" stroke-width="0.5"/><path d="M268.47434,161.26715c-0.20201,-0.05772 -0.34383,-0.14888 -0.44251,-0.25488c-0.57763,-0.18729 -0.57763,-0.85856 -0.57763,-0.85856c0,-0.82734 0.00032,-1.65468 0.00111,-2.48202l-0.11628,-1.16278c-0.00377,-0.03359 -0.00571,-0.06774 -0.00571,-0.10234c0,-0.50068 0.40588,-0.90657 0.90657,-0.90657c0.32979,0 0.61846,0.1761 0.77709,0.4394l0.37908,0.60653c0.09696,-0.04721 0.19581,-0.1453 0.29914,-0.16829c0.61666,-0.13718 1.38861,-0.7512 1.86511,-0.33643c1.69029,1.47131 -0.13551,2.09473 -0.59751,2.8669c-0.21794,0.36426 -0.10074,0.93023 -0.42941,1.19885c-0.34748,0.28399 -0.85592,0.2414 -1.30796,0.31324c-0.00683,0.02441 -0.01478,0.04969 -0.02402,0.07549l0.39367,0.14881c0,0 -0.24905,0.87169 -1.12074,0.62263zM269.36187,158.31601c-0.03185,0.00087 -0.06359,0.00121 -0.0951,0.00108c0.0001,0.15727 0.00018,0.31453 0.00025,0.4718c0.02405,-0.00503 0.04563,-0.01718 0.06388,-0.03895c0.09411,-0.11227 0.0541,-0.27493 0.03096,-0.43393z" fill="#00feff" stroke="none" stroke-width="0.5"/><path d="M269.36883,158.26649c0.02314,0.159 0.05677,0.42117 -0.03734,0.53344c-0.01825,0.02177 -0.05301,0.03231 -0.07706,0.03734c-0.00007,-0.15727 -0.00025,-0.41128 -0.00035,-0.56855c0.03151,0.00013 0.08292,-0.00136 0.11477,-0.00223z" data-paper-data="{&quot;noHover&quot;:false,&quot;origItem&quot;:[&quot;Path&quot;,{&quot;applyMatrix&quot;:true,&quot;segments&quot;:[[[269.36187,158.31601],[0,0],[-0.03185,0.00087]],[[269.26677,158.31709],[0.03151,0.00013],[0.0001,0.15727]],[[269.26702,158.78889],[-0.00007,-0.15727],[0.02405,-0.00503]],[[269.3309,158.74994],[-0.01825,0.02177],[0.09411,-0.11227]],[[269.36186,158.31601],[0.02314,0.159],[0,0]]],&quot;closed&quot;:true,&quot;fillColor&quot;:[0,0,0,1]}]}" fill="#00feff" stroke="none" stroke-width="0.5"/></g></g></svg>