<svg version="1.1" xmlns="http://www.w3.org/2000/svg" xmlns:xlink="http://www.w3.org/1999/xlink" width="78" height="101.40532" viewBox="0,0,78,101.40532"><g transform="translate(-20,-126.92802)"><g data-paper-data="{&quot;isPaintingLayer&quot;:true}" fill-rule="nonzero" stroke-linejoin="miter" stroke-miterlimit="10" stroke-dasharray="" stroke-dashoffset="0" style="mix-blend-mode: normal"><path d="M25,223.33334v-24h68v24z" fill="#00f1ff" stroke="#000000" stroke-width="10" stroke-linecap="butt"/><text transform="translate(41.27314,219.33334) scale(0.5,0.5)" font-size="40" xml:space="preserve" fill="#ff6daa" fill-rule="nonzero" stroke="none" stroke-width="1" stroke-linecap="butt" stroke-linejoin="miter" stroke-miterlimit="10" stroke-dasharray="" stroke-dashoffset="0" font-family="Sans Serif" font-weight="normal" text-anchor="start" style="mix-blend-mode: normal"><tspan x="0" dy="0">140</tspan></text><path d="M86.74951,156.53845c0.61213,9.91743 -0.69352,18.431 -4.15416,23.32341c-5.25254,7.42567 -14.84132,8.49336 -25.26238,9.13658c-17.28698,1.06702 -31.23362,-3.26332 -32.77487,-28.2334c-0.92919,-15.054 3.57552,-22.05615 10.72416,-26.37908c4.70882,-2.84752 10.76352,-4.0399 17.6285,-4.46364c17.28698,-1.06702 32.2975,1.64604 33.83875,26.61613z" fill="#ff0092" stroke="#191919" stroke-width="6" stroke-linecap="butt"/><path d="M81.28153,145.9574c0.34909,5.65562 -3.17416,10.47534 -7.86939,10.76514c-4.69522,0.2898 -8.78445,-4.06004 -9.13354,-9.71566c-0.34908,-5.65562 3.17417,-10.47534 7.86939,-10.76514c4.69523,-0.2898 8.78445,4.06004 9.13354,9.71566z" fill="#ffabd9" stroke="none" stroke-width="6" stroke-linecap="butt"/><path d="M91.03854,156.22899c0.41496,6.72272 -5.13103,12.53563 -12.38729,12.98352c-7.25626,0.44788 -13.475,-4.63887 -13.88996,-11.36159c-0.41496,-6.72272 5.13103,-12.53563 12.38729,-12.98352c7.25626,-0.44788 13.47501,4.63887 13.88996,11.36158z" fill="#ffffff" stroke="#191919" stroke-width="6" stroke-linecap="butt"/><path d="M30.94697,163.72076c1.69843,6.02269 2.64148,8.65319 5.62787,12.87182c3.35447,4.73857 9.18744,8.85312 7.55033,8.95417c-1.4032,0.08661 -5.5053,-0.63828 -8.86403,-3.75548c-4.04846,-3.75733 -7.86338,-10.98826 -8.06497,-14.25436c-0.36885,-5.97574 -0.02282,-21.37661 3.07177,-21.56762c3.09458,-0.19101 -1.01941,11.72879 0.67902,17.75148z" fill="#910069" stroke="none" stroke-width="6" stroke-linecap="butt"/><path d="M57.69848,160.11168c0.41496,6.72272 -5.13103,12.53563 -12.38729,12.98352c-7.25626,0.44788 -13.47501,-4.63887 -13.88997,-11.36159c-0.41496,-6.72272 5.13103,-12.53563 12.38729,-12.98352c7.25626,-0.44788 13.47501,4.63887 13.88996,11.36159z" fill="#ffffff" stroke="#191919" stroke-width="6" stroke-linecap="butt"/><path d="M65.62452,172.78955l-7.31832,0.83961" fill="none" stroke="#000000" stroke-width="6" stroke-linecap="round"/><path d="M35.31233,161.55582c0,-1.58949 1.28853,-2.87802 2.87802,-2.87802c1.58949,0 2.87802,1.28853 2.87802,2.87802c0,1.58949 -1.28853,2.87802 -2.87802,2.87802c-1.58949,0 -2.87802,-1.28853 -2.87802,-2.87802z" fill="#000000" stroke="none" stroke-width="6" stroke-linecap="butt"/><path d="M81.18444,155.43477c0,-1.58949 1.28853,-2.87802 2.87802,-2.87802c1.58949,0 2.87802,1.28853 2.87802,2.87802c0,1.58949 -1.28853,2.87802 -2.87802,2.87802c-1.58949,0 -2.87802,-1.28853 -2.87802,-2.87802z" fill="#000000" stroke="none" stroke-width="6" stroke-linecap="butt"/></g></g></svg>