<svg version="1.1" xmlns="http://www.w3.org/2000/svg" xmlns:xlink="http://www.w3.org/1999/xlink" width="921" height="721" viewBox="0,0,921,721"><g transform="translate(120.5,168.5)"><g data-paper-data="{&quot;isPaintingLayer&quot;:true}" fill-rule="nonzero" stroke-linejoin="miter" stroke-miterlimit="10" stroke-dasharray="" stroke-dashoffset="0" style="mix-blend-mode: normal"><path d="M-49.5,203.5v-226h663v226z" fill="#46004a" stroke="none" stroke-width="0" stroke-linecap="butt"/><path d="M365.82295,109.1459c0.62166,-0.31083 1.18571,-0.44883 1.69216,-0.46739c-0.11376,-2.22211 -0.13836,-4.48283 0.33521,-6.04008c1.74492,-5.73791 4.88037,-10.76734 11.049,-11.84c4.53439,-0.78849 9.96582,-0.08999 14.60068,-0.04842c1.18127,0.01059 2.7959,0.83213 3.54299,-0.08295c0.97414,-1.19319 1.71473,-6.65731 1.83263,-7.12955c0.16541,-0.66257 2.25063,-6.70472 2.43443,-7.00899c0.5047,-0.83547 6.08212,-6.08738 6.21845,-6.21845c2.45694,-0.83721 4.82427,-2.00905 7.37081,-2.51164c3.57809,-0.70617 8.86295,-0.04842 12.60068,-0.04842c1.31543,0 6.32399,-0.06049 7.35233,0.25549c0.01841,-0.11911 0.06848,-0.22638 0.16591,-0.31679c3.89272,-3.61221 10.4797,-4.17614 15.48176,-3.93871c1.92667,0.09145 4.06282,-0.45504 5.76947,0.44372c1.65901,0.87367 2.49615,2.8242 3.47395,4.42405c3.44778,5.64116 4.49256,10.45048 4.50659,16.88223c0.00629,2.88652 0.53453,6.32436 -0.70784,8.80734c-0.1127,0.22525 0.31101,-0.46228 0.55853,-0.50891c0.7861,-0.14812 1.59954,-0.03228 2.39932,-0.04842c3.50538,0.02572 8.12579,-0.68545 11.27623,1.76985c4.82086,3.75715 5.43766,10.97849 3.28134,16.166c-0.6911,1.66259 -0.91497,3.78882 -2.3649,4.8563c-3.32939,2.45122 -9.36467,0.10036 -12.79335,-0.34058c-1.48395,-0.19084 -6.13054,0.25838 -7.8575,0.02033c-1.36149,-0.18768 -2.6369,-0.82434 -4,-1c-2.49334,-0.32131 -5.02786,0.0281 -7.54181,0.0281c-6.66667,0 -13.33333,0 -20,0c-6.56476,0 -14.07312,-0.97127 -20.54181,-0.0281c-2.71998,0.39659 -5.27351,1.651 -8,2c-1.27545,0.16326 -2.58291,-0.19014 -3.8575,-0.02033c-2.08972,0.27841 -3.9227,1.64049 -6,2c-1.03218,0.17864 -2.1055,-0.12781 -3.1425,0.02033c-4.26437,0.60918 -10.18354,2.28666 -14.54488,0.86719c-1.48816,-0.48435 -2.66229,-1.64594 -3.99344,-2.46891l-2.27398,-3.44314c0,0 -1.67705,-3.3541 1.67705,-5.03115zM435.15166,69.51198c-0.03587,0.30377 -0.07304,0.47245 -0.02118,0.25627c0.01968,-0.08205 0.0254,-0.1679 0.02118,-0.25627zM375.23932,112.95545c2.87381,0.13214 5.9811,-0.77429 8.80249,-1.17736c0.94295,-0.13471 1.91672,0.16944 2.8575,0.02033c2.08219,-0.33003 3.91534,-1.6859 6,-2c1.36544,-0.20573 2.77177,0.14657 4.1425,-0.02033c2.72859,-0.33223 5.27803,-1.61733 8,-2c6.82204,-0.95908 14.54856,-0.0281 21.45819,-0.0281c9.27319,0 19.27121,-1.08858 28.45819,0.0281c2.18843,0.266 4.33728,0.9664 6.54181,0.9719c1.86696,0.00466 3.74744,-0.17749 5.60068,0.04842c1.04635,0.12755 1.95737,0.84496 3,1c1.1209,0.16668 2.27977,-0.22392 3.39932,-0.04842c0.35358,0.05543 0.55237,0.95901 0.80734,0.70784c0.28507,-0.28083 -0.4196,-0.74729 -0.3649,-1.1437c0.35295,-2.55754 1.88584,-5.56323 -0.71866,-7.834c-1.69033,-1.47373 -4.48129,-0.25026 -6.72377,-0.23015c-3.09074,-0.04156 -6.68242,0.39807 -9.04216,-2.55734c-1.08999,-1.36513 -0.57373,-3.45092 -0.70784,-5.19266c-0.39506,-5.13056 1.03895,-10.82283 -0.79702,-15.78299c-0.69165,-1.8686 -1.85434,-3.52896 -2.69639,-5.33479c-0.23404,-0.50192 -0.01377,-1.36553 -0.52605,-1.57595c-0.70123,-0.28802 -1.47534,0.37759 -2.23053,0.44372c-3.49782,0.3063 -7.50062,-0.23435 -10.51824,2.06129c-1.50728,1.14666 -2.25837,3.53332 -4.11224,3.92046c-1.44512,0.30178 -2.4196,-1.75604 -3.80458,-2.2672c-1.43031,-0.52789 -3.04032,0.28545 -4.56494,0.28545c-5.67853,0 -10.56522,-0.3166 -16.02851,1.43994c-1.22258,1.29735 -2.87284,2.24791 -3.78155,3.78155c-2.92371,4.93436 -1.10936,11.50657 -5.73293,15.86146c-2.3634,2.22606 -5.6225,1.89625 -8.45701,1.91705c-3.33161,0.02444 -6.66857,0.0218 -10,0c-1.41202,-0.00924 -3.59164,-0.39745 -5.02851,0.43994c-1.89293,1.10318 -2.70462,3.56942 -3.32181,5.67163c-0.6391,2.17685 -0.00213,6.06073 0.08964,8.59388z" fill="#000000" stroke="none" stroke-width="0.5" stroke-linecap="butt"/><path d="M375.1012,104.37379c0.61719,-2.10221 1.4279,-4.57337 3.32083,-5.67655c1.43686,-0.83739 3.71537,-0.46414 5.12738,-0.4549c3.33143,0.0218 6.66797,0.02208 9.99958,-0.00236c2.83451,-0.02079 5.99556,0.32866 8.35896,-1.8974c4.62357,-4.35489 2.81667,-10.96444 5.74037,-15.89879c0.90871,-1.53364 2.5676,-2.49407 3.79018,-3.79141c5.46329,-1.75654 10.39104,-1.45172 16.06956,-1.45172c1.52462,0 3.14635,-0.80992 4.57666,-0.28202c1.38498,0.51116 2.36988,2.57505 3.815,2.27327c1.85387,-0.38714 2.60645,-2.77263 4.11373,-3.91928c3.01762,-2.29564 7.02775,-1.74759 10.52557,-2.05388c0.75519,-0.06613 1.53022,-0.73056 2.23145,-0.44254c0.51228,0.21041 0.29334,1.07588 0.52739,1.5778c0.84205,1.80583 2.009,3.47376 2.70065,5.34236c1.83597,4.96015 0.40637,10.67566 0.80142,15.80622c0.13412,1.74174 -0.38314,3.83521 0.70685,5.20034c2.35974,2.9554 5.85371,2.49453 8.94444,2.5361c2.24248,-0.02011 5.13126,-1.22284 6.82159,0.25089c2.60451,2.27076 1.06969,5.28345 0.71674,7.84099c-0.05471,0.39641 0.64966,0.86371 0.36459,1.14454c-0.25496,0.25117 -0.45363,-0.65276 -0.80721,-0.70818c-1.11955,-0.1755 -2.27887,0.21627 -3.39976,0.04959c-1.04263,-0.15504 -1.95372,-0.87227 -3.00007,-0.99982c-1.85325,-0.22591 -3.73472,-0.04145 -5.60168,-0.04611c-2.20453,-0.0055 -4.35458,-0.70346 -6.54302,-0.96947c-9.18697,-1.11668 -19.22387,-0.00173 -28.49706,-0.00173c-6.90963,0 -14.68042,-0.94931 -21.50245,0.00977c-2.72197,0.38267 -5.27449,1.66352 -8.00308,1.99574c-1.37073,0.1669 -2.77864,-0.18802 -4.14407,0.01771c-2.08466,0.3141 -3.91848,1.66874 -6.00067,1.99877c-0.94078,0.14911 -1.91523,-0.15636 -2.85818,-0.02165c-2.82139,0.40307 -5.92977,1.30712 -8.80358,1.17498c-0.09177,-2.53315 -0.73122,-6.4244 -0.09212,-8.60125z" data-paper-data="{&quot;noHover&quot;:false,&quot;origItem&quot;:[&quot;Path&quot;,{&quot;applyMatrix&quot;:true,&quot;segments&quot;:[[[375.23932,112.95545],[-0.09177,-2.53315],[2.87381,0.13214]],[[384.04181,111.7781],[-2.82139,0.40307],[0.94295,-0.13471]],[[386.89932,111.79842],[-0.94078,0.14911],[2.08219,-0.33003]],[[392.89932,109.79842],[-2.08466,0.3141],[1.36544,-0.20573]],[[397.04181,109.7781],[-1.37073,0.1669],[2.72859,-0.33223]],[[405.04181,107.7781],[-2.72197,0.38267],[6.82204,-0.95908]],[[426.5,107.75],[-6.90963,0],[9.27319,0]],[[454.95819,107.7781],[-9.18697,-1.11668],[2.18843,0.266]],[[461.5,108.75],[-2.20453,-0.0055],[1.86696,0.00466]],[[467.10068,108.79842],[-1.85325,-0.22591],[1.04635,0.12755]],[[470.10068,109.79842],[-1.04263,-0.15504],[1.1209,0.16668]],[[473.5,109.75],[-1.11955,-0.1755],[0.35358,0.05543]],[[474.30734,110.45784],[-0.25496,0.25117],[0.28507,-0.28083]],[[473.94244,109.31415],[-0.05471,0.39641],[0.35295,-2.55754]],[[473.22377,101.48015],[2.60451,2.27076],[-1.69033,-1.47373]],[[466.5,101.25],[2.24248,-0.02011],[-3.09074,-0.04156]],[[457.45784,98.69266],[2.35974,2.9554],[-1.08999,-1.36513]],[[456.75,93.5],[0.13412,1.74174],[-0.39506,-5.13056]],[[455.95298,77.71701],[1.83597,4.96015],[-0.69165,-1.8686]],[[453.25659,72.38223],[0.84205,1.80583],[-0.23404,-0.50192]],[[452.73053,70.80628],[0.51228,0.21041],[-0.70123,-0.28802]],[[450.5,71.25],[0.75519,-0.06613],[-3.49782,0.3063]],[[439.98176,73.31129],[3.01762,-2.29564],[-1.50728,1.14666]],[[435.86952,77.23175],[1.85387,-0.38714],[-1.44512,0.30178]],[[432.06494,74.96455],[1.38498,0.51116],[-1.43031,-0.52789]],[[427.5,75.25],[1.52462,0],[-5.67853,0]],[[411.47149,76.68994],[5.46329,-1.75654],[-1.22258,1.29735]],[[407.68994,80.47149],[0.90871,-1.53364],[-2.92371,4.93436]],[[401.95701,96.33295],[4.62357,-4.35489],[-2.3634,2.22606]],[[393.5,98.25],[2.83451,-0.02079],[-3.33161,0.02444]],[[383.5,98.25],[3.33143,0.0218],[-1.41202,-0.00924]],[[378.47149,98.68994],[1.43686,-0.83739],[-1.89293,1.10318]],[[375.14968,104.36157],[0.61719,-2.10221],[-0.6391,2.17685]]],&quot;closed&quot;:true}]}" fill="#444444" stroke="none" stroke-width="0.5" stroke-linecap="butt"/><path d="M-59.5,276.5v-167h858v167z" fill="#4a5050" stroke="#000000" stroke-width="4" stroke-linecap="butt"/><path d="M-118.5,329v-152h705v152z" fill="#a6b3b3" stroke="#000000" stroke-width="4" stroke-linecap="butt"/><path d="M-69.5,550.5v-223h722v223z" fill="#4a5050" stroke="#000000" stroke-width="4" stroke-linecap="butt"/><path d="M-25.5,108.5v-275h164v275z" fill="#617878" stroke="#000000" stroke-width="4" stroke-linecap="butt"/><path d="M139.5,108.5v-71h121v71z" fill="#617878" stroke="#000000" stroke-width="4" stroke-linecap="butt"/><path d="M259.5,109.5v-43h103v43z" fill="#78593c" stroke="#000000" stroke-width="4" stroke-linecap="butt"/><path d="M-19.5,244.5v-19h57v19z" fill="#ffe25d" stroke="#000000" stroke-width="1.5" stroke-linecap="butt"/><path d="M81.5,246.5v-21h64v21z" fill="#ffe25d" stroke="#000000" stroke-width="1.5" stroke-linecap="butt"/><path d="M183.5,247.5v-21h56v21z" fill="#ffe25d" stroke="#000000" stroke-width="1.5" stroke-linecap="butt"/><path d="M276.5,245.5v-18h54v18z" fill="#ffe25d" stroke="#000000" stroke-width="1.5" stroke-linecap="butt"/><path d="M350.5,247.5v-21h57v21z" fill="#ffe25d" stroke="#000000" stroke-width="1.5" stroke-linecap="butt"/><path d="M430.5,246.5v-20h55v20z" fill="#ffe25d" stroke="#000000" stroke-width="1.5" stroke-linecap="butt"/><text transform="translate(125.5,349) scale(0.5,0.5)" font-size="40" xml:space="preserve" fill="#ffffff" fill-rule="nonzero" stroke="none" stroke-width="1" stroke-linecap="butt" stroke-linejoin="miter" stroke-miterlimit="10" stroke-dasharray="" stroke-dashoffset="0" font-family="Sans Serif" font-weight="normal" text-anchor="start" style="mix-blend-mode: normal"><tspan x="0" dy="0">(SPACE) TO SHOOT</tspan></text><path d="M69.65345,152.05429l4,-64l22,13l6,-126l60,173l-34,15z" fill="#ffd400" stroke="#000000" stroke-width="10" stroke-linecap="round"/><path d="M316.65346,175.05429l-34,-15l60,-173l6,126l22,-13l4,64z" data-paper-data="{&quot;index&quot;:null}" fill="#ffd400" stroke="#000000" stroke-width="10" stroke-linecap="round"/><path d="M410.65345,155.05429l-17,-7.5l30,-86.5l3,63l11,-6.5l2,32z" data-paper-data="{&quot;index&quot;:null}" fill="#ffd400" stroke="#000000" stroke-width="10" stroke-linecap="round"/><path d="M84.24041,361.05429l-19.58696,-8.6413l34.56522,-99.66304l3.45652,72.58696l12.67391,-7.48913l2.30435,36.86957z" data-paper-data="{&quot;index&quot;:null}" fill="#ffd400" stroke="#000000" stroke-width="10" stroke-linecap="round"/><path d="M402.65346,187.05429l4,-64l22,13l6,-126l60,173l-34,15z" fill="#ffd400" stroke="#000000" stroke-width="10" stroke-linecap="round"/></g></g></svg>