<svg version="1.1" xmlns="http://www.w3.org/2000/svg" xmlns:xlink="http://www.w3.org/1999/xlink" width="184.19343" height="171.68099" viewBox="0,0,184.19343,171.68099"><g transform="translate(-168.05674,-121.35858)"><g data-paper-data="{&quot;isPaintingLayer&quot;:true}" fill-rule="nonzero" stroke-linejoin="miter" stroke-miterlimit="10" stroke-dasharray="" stroke-dashoffset="0" style="mix-blend-mode: normal"><path d="M278.58196,198.54328c-1.60063,-8.75704 -5.40222,-18.97849 -0.87697,-27.21347c3.24657,-5.90805 10.35924,-7.00091 16.37024,-6.98041c1.16579,0.00398 2.37206,-0.26045 3.49711,0.04511c0.67726,0.18394 0.92307,1.42699 1.62002,1.34467c0.50849,-0.06006 0.00753,-1.02409 0.00038,-1.53606c-0.01161,-0.83183 -0.04849,-1.66322 -0.05666,-2.49509c-0.02595,-2.64281 0.17769,-5.28487 0.39133,-7.91916c0.73031,-1.2698 1.01033,-2.94225 2.19092,-3.80941c1.32162,-0.97076 7.25978,-0.80602 8.52415,-0.74792c0.69679,0.03202 1.42987,-0.01961 2.12078,0.07773c-0.45186,-1.05249 -0.74475,-2.18056 -1.04487,-3.28649c-1.19784,-4.41398 -1.23952,-8.35542 2.87619,-11.21626c2.99929,-2.08482 8.11582,-1.63532 11.36125,-0.61921c0.42842,0.13413 0.47534,0.99144 0.92411,0.9797c0.33445,-0.00875 -0.03582,-0.66825 -0.04487,-1.0027c-0.03255,-1.20218 -0.06699,-2.40442 -0.07993,-3.60697c-0.0174,-1.61703 -0.23606,-6.68025 1.05243,-7.83403c2.99182,-2.67902 9.23226,-0.82776 12.17041,0.58682c5.13119,4.1163 9.53634,10.08803 7.04502,17.19028c-0.40147,1.14452 -1.19534,2.15142 -2.06769,2.99409c-0.46693,0.45104 -1.53985,0.14794 -1.80052,0.74251c-0.19981,0.45577 0.67205,0.73518 0.982,1.12452c0.59721,0.75018 1.22659,1.48111 1.73802,2.29221c0.71367,1.13183 1.31114,2.33346 1.92753,3.52108c2.54944,4.91209 5.99995,12.74253 4.47079,18.57923c-1.17969,4.5028 -2.11148,5.87535 -5.38173,8.68813c-1.20206,1.0339 -3.64092,1.37308 -3.7263,2.95631c-0.15324,2.84171 0.83684,5.62986 1.27463,8.44183c0.50497,6.02876 2.44846,14.58778 -2.61896,19.38845c-3.2799,3.10725 -9.69615,2.56414 -13.69812,2.46058c-2.21986,-0.05744 -7.0987,-0.22083 -9.41293,-0.97119c-0.55241,-0.17911 -0.77628,-1.20055 -1.34871,-1.10278c-0.43178,0.07375 0.41047,0.90158 0.21926,1.29568c-0.74976,1.54537 -1.51086,3.25687 -2.91083,4.25206c-1.38927,0.98758 -3.26537,1.00058 -4.93823,1.32756c-4.33118,0.84657 -9.97212,1.71517 -14.03674,-0.57097c-1.21416,-0.6829 -2.38392,-1.51269 -3.30486,-2.55788c-0.38933,-0.44186 0.13366,-1.6619 -0.45348,-1.70755c-0.65394,-0.05084 -0.59665,1.26482 -1.1712,1.58124c-1.35078,0.74389 -2.92251,0.98531 -4.38376,1.47797c-1.45931,-0.42 -3.06349,-0.49957 -4.37794,-1.25999c-5.69245,-3.2931 -6.02408,-10.05817 -3.02125,-14.9102zM283.07955,195.81254c0.612,0.09011 1.27289,0.43923 1.73926,1.37196c0.94302,1.88604 -0.50017,2.97668 -0.9751,3.27191c-0.08318,0.72052 -0.45299,1.78548 -1.87291,2.09204c-1.10199,2.87358 0.49379,6.04727 3.86709,7.16707c2.21471,-0.91866 4.16968,-3.33461 6.5424,-2.98948c2.36396,0.34386 3.2568,3.59447 5.31468,4.80759c2.9348,1.73006 7.6802,0.4699 10.76285,0.0339c0.9787,-0.13842 2.10766,0.06872 2.92505,-0.48705c2.13473,-1.45147 0.63838,-4.80158 3.35711,-5.94475c0.26379,-0.11092 7.4988,1.22985 8.32275,1.31247c2.47275,0.24796 7.13408,0.31886 9.61078,0.24452c1.25313,-0.03761 4.32439,-0.15962 5.39127,-1.17037c2.03919,-1.9319 1.71549,-5.85509 1.60003,-8.31627c-0.10619,-2.26364 -0.4026,-4.51437 -0.58979,-6.77275c-0.32546,-2.0854 -1.45971,-8.61544 -1.14484,-10.30908c0.53292,-2.86647 3.45409,-3.96461 5.34672,-5.51184c2.57003,-2.101 3.86714,-4.59938 3.64686,-7.94091c-0.39096,-5.93053 -2.48342,-11.30095 -5.65461,-16.31363c-1.42678,-2.2553 -3.99438,-4.22294 -3.32866,-7.47089c0.38443,-1.87557 3.44621,-2.29247 3.99507,-4.12668c1.43227,-4.78638 -1.65042,-8.52711 -5.05234,-11.23852c-1.28182,-0.68701 -2.83586,-0.7025 -4.28558,-0.81814c-0.57783,-0.04609 -1.17866,-0.68257 -1.69006,-0.40964c-0.34195,0.1825 0.40327,0.68932 0.44374,1.0748c0.11097,1.05703 0.01387,2.12573 0.00383,3.18852c-0.03097,3.27525 0.75422,7.28679 -3.14914,9.30229c-1.18557,0.61217 -2.60267,-0.59289 -3.91483,-0.8349c-1.9101,-0.3523 -7.36168,-1.78574 -8.60099,1.07134c-1.15106,2.65363 1.65914,6.57723 1.97048,8.86844c0.26203,1.92839 1.20914,4.43762 -0.14376,5.83656c-1.20497,1.24597 -3.46175,-0.18917 -5.19002,-0.32127c-2.10175,-0.16065 -4.21133,-0.19995 -6.31847,-0.2559c-0.47896,-0.01272 -1.00767,-0.36888 -1.43024,-0.14305c-0.31004,0.16569 -0.15237,0.68635 -0.22855,1.02953c-0.24344,4.14447 1.2802,12.78738 -3.29415,15.26874c-1.33527,0.72432 -2.92585,-0.85312 -4.42866,-1.0748c-4.59863,-0.67837 -12.08663,-0.12384 -14.61012,4.55719c-3.34211,6.19956 -0.56865,14.82896 1.06287,21.95106z" fill="#000000" stroke="none" stroke-width="0.5" stroke-linecap="butt"/><path d="M281.96718,173.86857c2.52349,-4.68103 10.11098,-5.24259 14.70962,-4.56422c1.50281,0.22169 2.99356,1.80323 4.32883,1.07891c4.57435,-2.48136 3.07307,-11.17021 3.31651,-15.31468c0.07618,-0.34318 -0.07968,-0.86498 0.23036,-1.03066c0.42257,-0.22583 0.95426,0.12869 1.43322,0.1414c2.10714,0.05595 4.23481,0.09002 6.33656,0.25067c1.72828,0.1321 4.00237,1.56868 5.20734,0.32271c1.3529,-1.39893 0.38351,-3.81074 0.12148,-5.73913c-0.31133,-2.29121 -3.10857,-6.31377 -1.95751,-8.9674c1.23931,-2.85707 6.70399,-1.42096 8.61409,-1.06865c1.31216,0.24202 2.73484,1.44942 3.92042,0.83725c3.90337,-2.0155 3.07536,-5.93668 3.10632,-9.21194c0.01005,-1.06279 0.10847,-2.13091 -0.00249,-3.18794c-0.04047,-0.38548 -0.74772,-0.98481 -0.40577,-1.16731c0.51139,-0.27293 1.11393,0.36427 1.69176,0.41036c1.44972,0.11564 3.00774,0.13311 4.28956,0.82013c3.40192,2.7114 6.49429,6.45914 5.06202,11.24552c-0.54886,1.83421 -3.61078,2.25098 -3.99521,4.12655c-0.66572,3.24795 1.90928,5.22411 3.33606,7.4794c3.1712,5.01268 5.2723,10.40745 5.66326,16.33799c0.22028,3.34153 -1.07746,5.85268 -3.64748,7.95369c-1.89263,1.54723 -4.81735,2.65693 -5.35027,5.5234c-0.31487,1.69363 0.81215,8.2353 1.13761,10.3207c0.18719,2.25838 0.47924,4.51373 0.58543,6.77736c0.11546,2.46119 0.433,6.38926 -1.60619,8.32116c-1.06689,1.01075 -4.14342,1.13586 -5.39656,1.17347c-2.4767,0.07434 -7.14843,0.00734 -9.62118,-0.24062c-0.82395,-0.08262 -8.06973,-1.42189 -8.33352,-1.31097c-2.71873,1.14317 -1.2266,4.49323 -3.36133,5.9447c-0.8174,0.55577 -1.94974,0.34832 -2.92844,0.48674c-3.08265,0.43599 -7.83962,1.69329 -10.77442,-0.03677c-2.05788,-1.21312 -2.95776,-4.46705 -5.32171,-4.8109c-2.37271,-0.34513 -4.33132,2.06854 -6.54603,2.9872c-3.37329,-1.1198 -4.97522,-4.29849 -3.87323,-7.17207c1.41993,-0.30656 1.78965,-1.3716 1.87284,-2.09211c0.47493,-0.29524 1.91674,-1.38725 0.97372,-3.27329c-0.46636,-0.93273 -1.12909,-1.28386 -1.74109,-1.37396c-1.63152,-7.12209 -4.41666,-15.77713 -1.07455,-21.97668z" data-paper-data="{&quot;noHover&quot;:false,&quot;origItem&quot;:[&quot;Path&quot;,{&quot;applyMatrix&quot;:true,&quot;segments&quot;:[[[283.07955,195.81254],[-1.63152,-7.12209],[0.612,0.09011]],[[284.81881,197.1845],[-0.46636,-0.93273],[0.94302,1.88604]],[[283.84371,200.45641],[0.47493,-0.29524],[-0.08318,0.72052]],[[281.9708,202.54845],[1.41993,-0.30656],[-1.10199,2.87358]],[[285.83788,209.71552],[-3.37329,-1.1198],[2.21471,-0.91866]],[[292.38028,206.72604],[-2.37271,-0.34513],[2.36396,0.34386]],[[297.69496,211.53363],[-2.05788,-1.21312],[2.9348,1.73006]],[[308.45781,211.56753],[-3.08265,0.43599],[0.9787,-0.13842]],[[311.38286,211.08049],[-0.8174,0.55577],[2.13473,-1.45147]],[[314.73997,205.13574],[-2.71873,1.14317],[0.26379,-0.11092]],[[323.06272,206.44821],[-0.82395,-0.08262],[2.47275,0.24796]],[[332.67349,206.69272],[-2.4767,0.07434],[1.25313,-0.03761]],[[338.06477,205.52236],[-1.06689,1.01075],[2.03919,-1.9319]],[[339.6648,197.20608],[0.11546,2.46119],[-0.10619,-2.26364]],[[339.07501,190.43333],[0.18719,2.25838],[-0.32546,-2.0854]],[[337.93017,180.12425],[-0.31487,1.69363],[0.53292,-2.86647]],[[343.27689,174.61241],[-1.89263,1.54723],[2.57003,-2.101]],[[346.92375,166.6715],[0.22028,3.34153],[-0.39096,-5.93053]],[[341.26914,150.35788],[3.1712,5.01268],[-1.42678,-2.2553]],[[337.94048,142.88698],[-0.66572,3.24795],[0.38443,-1.87557]],[[341.93555,138.76031],[-0.54886,1.83421],[1.43227,-4.78638]],[[336.88321,127.52179],[3.40192,2.7114],[-1.28182,-0.68701]],[[332.59763,126.70365],[1.44972,0.11564],[-0.57783,-0.04609]],[[330.90757,126.294],[0.51139,-0.27293],[-0.34195,0.1825]],[[331.35131,127.36881],[-0.04047,-0.38548],[0.11097,1.05703]],[[331.35514,130.55733],[0.01005,-1.06279],[-0.03097,3.27525]],[[328.20599,139.85962],[3.90337,-2.0155],[-1.18557,0.61217]],[[324.29116,139.02472],[1.31216,0.24202],[-1.9101,-0.3523]],[[315.69018,140.09605],[1.23931,-2.85707],[-1.15106,2.65363]],[[317.66066,148.96449],[-0.31133,-2.29121],[0.26203,1.92839]],[[317.5169,154.80105],[1.3529,-1.39893],[-1.20497,1.24597]],[[312.32687,154.47978],[1.72828,0.1321],[-2.10175,-0.16065]],[[306.00841,154.22388],[2.10714,0.05595],[-0.47896,-0.01272]],[[304.57817,154.08083],[0.42257,-0.22583],[-0.31004,0.16569]],[[304.34962,155.11036],[0.07618,-0.34318],[-0.24344,4.14447]],[[301.05546,170.3791],[4.57435,-2.48136],[-1.33527,0.72432]],[[296.6268,169.30429],[1.50281,0.22169],[-4.59863,-0.67837]],[[282.01668,173.86148],[2.52349,-4.68103],[-3.34211,6.19956]]],&quot;closed&quot;:true}]}" fill="#ff0000" stroke="none" stroke-width="0.5" stroke-linecap="butt"/><path d="M238.70369,216.33645c-1.31445,0.76041 -2.91862,0.83999 -4.37794,1.25999c-1.46125,-0.49266 -3.03298,-0.73408 -4.38376,-1.47797c-0.57455,-0.31642 -0.51726,-1.63208 -1.1712,-1.58123c-0.58714,0.04565 -0.06415,1.26569 -0.45349,1.70755c-0.92093,1.04519 -2.0907,1.87498 -3.30486,2.55788c-4.06462,2.28614 -9.70556,1.41754 -14.03673,0.57097c-1.67287,-0.32698 -3.54897,-0.33998 -4.93824,-1.32756c-1.39997,-0.99519 -2.16106,-2.70668 -2.91082,-4.25206c-0.1912,-0.3941 0.65104,-1.22193 0.21926,-1.29568c-0.57244,-0.09777 -0.7963,0.92366 -1.34871,1.10277c-2.31423,0.75036 -7.19308,0.91375 -9.41294,0.97119c-4.00197,0.10356 -10.41823,0.64666 -13.69813,-2.46059c-5.06742,-4.80067 -3.12393,-13.35969 -2.61896,-19.38845c0.43779,-2.81196 1.42788,-5.60012 1.27463,-8.44183c-0.08538,-1.58322 -2.52425,-1.9224 -3.7263,-2.95631c-3.27025,-2.81278 -4.20204,-4.18533 -5.38173,-8.68813c-1.52916,-5.8367 1.92135,-13.66714 4.47079,-18.57923c0.61639,-1.18762 1.21386,-2.38924 1.92753,-3.52108c0.51144,-0.81109 1.14081,-1.54203 1.73802,-2.29221c0.30995,-0.38934 1.18182,-0.66876 0.982,-1.12453c-0.26066,-0.59457 -1.3336,-0.29146 -1.80052,-0.74251c-0.87235,-0.84268 -1.66621,-1.84957 -2.06769,-2.99409c-2.49133,-7.10225 1.91382,-13.07398 7.04502,-17.19028c2.93815,-1.41457 9.17859,-3.26583 12.17041,-0.58682c1.2885,1.15378 1.06983,6.21701 1.05243,7.83404c-0.01294,1.20255 -0.04738,2.40479 -0.07993,3.60697c-0.00905,0.33444 -0.37932,0.99395 -0.04487,1.0027c0.44877,0.01174 0.4957,-0.84557 0.92411,-0.9797c3.24543,-1.01611 8.36196,-1.46561 11.36125,0.61921c4.11571,2.86085 4.07403,6.80228 2.87619,11.21626c-0.30012,1.10593 -0.59302,2.234 -1.04487,3.28649c0.6909,-0.09734 1.42399,-0.04571 2.12078,-0.07773c1.26436,-0.05811 7.20253,-0.22284 8.52416,0.74792c1.18059,0.86717 1.46061,2.5396 2.19091,3.80941c0.21364,2.6343 0.41728,5.27635 0.39133,7.91916c-0.00817,0.83187 -0.04505,1.66326 -0.05666,2.49509c-0.00715,0.51197 -0.5081,1.47601 0.00038,1.53607c0.69694,0.08232 0.94276,-1.16073 1.62002,-1.34467c1.12505,-0.30555 2.33132,-0.04113 3.49711,-0.04511c6.011,-0.0205 13.12367,1.07237 16.37024,6.98041c4.52525,8.23498 0.72367,18.45642 -0.87697,27.21347c3.00284,4.85203 2.67119,11.6171 -3.02125,14.9102zM238.29022,176.74444c-2.52348,-4.68103 -10.01149,-5.23556 -14.61013,-4.55719c-1.50281,0.22169 -3.09339,1.79913 -4.42866,1.0748c-4.57435,-2.48137 -3.05071,-11.12427 -3.29415,-15.26874c-0.07619,-0.34318 0.08148,-0.86385 -0.22856,-1.02953c-0.42256,-0.22582 -0.95129,0.13034 -1.43024,0.14305c-2.10714,0.05595 -4.21671,0.09525 -6.31846,0.2559c-1.72828,0.1321 -3.98506,1.56724 -5.19003,0.32127c-1.35289,-1.39893 -0.40579,-3.90817 -0.14375,-5.83656c0.31134,-2.29121 3.12153,-6.21481 1.97047,-8.86844c-1.23931,-2.85708 -6.69089,-1.42364 -8.60098,-1.07134c-1.31215,0.24202 -2.72926,1.44707 -3.91483,0.8349c-3.90337,-2.0155 -3.11818,-6.02704 -3.14914,-9.30229c-0.01005,-1.06279 -0.10714,-2.13149 0.00383,-3.18852c0.04047,-0.38548 0.78569,-0.89231 0.44374,-1.0748c-0.51139,-0.27293 -1.11222,0.36354 -1.69006,0.40964c-1.44972,0.11565 -3.00375,0.13113 -4.28557,0.81815c-3.40193,2.71141 -6.48461,6.45214 -5.05235,11.23852c0.54887,1.8342 3.61065,2.2511 3.99507,4.12668c0.66572,3.24795 -1.90188,5.21559 -3.32867,7.47089c-3.1712,5.01268 -5.26365,10.3831 -5.65461,16.31363c-0.22028,3.34153 1.07684,5.8399 3.64686,7.94091c1.89263,1.54723 4.81381,2.64538 5.34672,5.51184c0.31487,1.69364 -0.81938,8.22367 -1.14484,10.30908c-0.18719,2.25839 -0.4836,4.50911 -0.58979,6.77275c-0.11545,2.46119 -0.43915,6.38437 1.60003,8.31627c1.06689,1.01075 4.13814,1.13276 5.39128,1.17037c2.4767,0.07434 7.13802,0.00344 9.61077,-0.24452c0.82395,-0.08262 8.05896,-1.42339 8.32275,-1.31247c2.71873,1.14317 1.22238,4.49329 3.35711,5.94475c0.8174,0.55577 1.94635,0.34862 2.92505,0.48704c3.08265,0.43599 7.82805,1.69616 10.76284,-0.0339c2.05788,-1.21312 2.95073,-4.46374 5.31468,-4.80759c2.37271,-0.34513 4.32769,2.07082 6.54239,2.98947c3.3733,-1.1198 4.96908,-4.29349 3.86709,-7.16707c-1.41993,-0.30656 -1.78973,-1.37152 -1.87292,-2.09204c-0.47493,-0.29523 -1.91812,-1.38587 -0.9751,-3.27191c0.46636,-0.93273 1.12726,-1.28186 1.73926,-1.37197c1.63153,-7.1221 4.40498,-15.7515 1.06287,-21.95105z" data-paper-data="{&quot;index&quot;:null}" fill="#000000" stroke="none" stroke-width="0.5" stroke-linecap="butt"/><path d="M237.26516,198.72821c-0.612,0.0901 -1.27473,0.44124 -1.74109,1.37396c-0.94302,1.88604 0.4988,2.97806 0.97373,3.27329c0.08318,0.72052 0.45291,1.78555 1.87284,2.09211c1.10199,2.87358 -0.49993,6.05227 -3.87323,7.17207c-2.21471,-0.91866 -4.17331,-3.33233 -6.54603,-2.9872c-2.36396,0.34385 -3.26383,3.59778 -5.32171,4.8109c-2.9348,1.73006 -7.69177,0.47276 -10.77442,0.03677c-0.9787,-0.13843 -2.11104,0.06903 -2.92844,-0.48674c-2.13474,-1.45147 -0.64261,-4.80152 -3.36133,-5.94469c-0.26379,-0.11092 -7.50957,1.22835 -8.33352,1.31097c-2.47275,0.24795 -7.14448,0.31495 -9.62118,0.24061c-1.25313,-0.03761 -4.32967,-0.16271 -5.39656,-1.17347c-2.03919,-1.9319 -1.72164,-5.85998 -1.60619,-8.32116c0.10619,-2.26364 0.39824,-4.51898 0.58543,-6.77736c0.32546,-2.08541 1.45248,-8.62707 1.13761,-10.3207c-0.53292,-2.86647 -3.45764,-3.97617 -5.35027,-5.5234c-2.57002,-2.101 -3.86776,-4.61215 -3.64748,-7.95368c0.39095,-5.93053 2.49206,-11.32531 5.66325,-16.33799c1.42678,-2.2553 4.00178,-4.23145 3.33606,-7.47941c-0.38442,-1.87557 -3.44634,-2.29235 -3.9952,-4.12655c-1.43227,-4.78637 1.66009,-8.53411 5.06202,-11.24551c1.28182,-0.68702 2.83984,-0.70448 4.28956,-0.82013c0.57783,-0.0461 1.18036,-0.68329 1.69176,-0.41036c0.34195,0.18249 -0.3653,0.78183 -0.40577,1.16731c-0.11096,1.05704 -0.01255,2.12515 -0.0025,3.18794c0.03097,3.27525 -0.79704,7.19643 3.10632,9.21193c1.18557,0.61217 2.60826,-0.59522 3.92042,-0.83724c1.9101,-0.35231 7.37478,-1.78843 8.61408,1.06865c1.15106,2.65363 -1.64618,6.67619 -1.95752,8.9674c-0.26203,1.92839 -1.23142,4.34019 0.12148,5.73913c1.20497,1.24597 3.47906,-0.1906 5.20734,-0.32271c2.10175,-0.16065 4.22942,-0.19473 6.33656,-0.25067c0.47896,-0.01271 1.01065,-0.36722 1.43322,-0.1414c0.31003,0.16568 0.15418,0.68748 0.23036,1.03066c0.24344,4.14447 -1.25785,12.83332 3.31651,15.31468c1.33527,0.72432 2.82602,-0.85722 4.32883,-1.07891c4.59863,-0.67837 12.18614,-0.1168 14.70962,4.56422c3.34211,6.19956 0.55697,14.85458 -1.07456,21.97668z" data-paper-data="{&quot;noHover&quot;:false,&quot;origItem&quot;:[&quot;Path&quot;,{&quot;applyMatrix&quot;:true,&quot;segments&quot;:[[[566.1591,391.62507],[-3.26305,-14.24419],[1.22399,0.18021]],[[569.63762,394.369],[-0.93273,-1.86546],[1.88604,3.77208]],[[567.68742,400.91283],[0.94986,-0.59047],[-0.16637,1.44103]],[[563.94159,405.09691],[2.83986,-0.61312],[-2.20398,5.74716]],[[571.67577,419.43104],[-6.74659,-2.2396],[4.42942,-1.83732]],[[584.76056,413.45209],[-4.74543,-0.69026],[4.72791,0.68771]],[[595.38992,423.06727],[-4.11576,-2.42624],[5.8696,3.46012]],[[616.91561,423.13507],[-6.1653,0.87199],[1.9574,-0.27685]],[[622.76571,422.16098],[-1.63479,1.11154],[4.26947,-2.90293]],[[629.47994,410.27147],[-5.43746,2.28634],[0.52758,-0.22184]],[[646.12543,412.89642],[-1.6479,-0.16524],[4.9455,0.49591]],[[665.34698,413.38545],[-4.9534,0.14868],[2.50627,-0.07523]],[[676.12953,411.04471],[-2.13377,2.02151],[4.07838,-3.8638]],[[679.3296,394.41217],[0.23091,4.92237],[-0.21238,-4.52728]],[[678.15002,380.86667],[0.37438,4.51677],[-0.65092,-4.17081]],[[675.86034,360.24851],[-0.62974,3.38727],[1.06583,-5.73294]],[[686.55378,349.22482],[-3.78525,3.09446],[5.14005,-4.20201]],[[693.8475,333.34301],[0.44057,6.68307],[-0.78191,-11.86106]],[[682.53828,300.71575],[6.34239,10.02535],[-2.85357,-4.5106]],[[675.88095,285.77397],[-1.33143,6.49591],[0.76885,-3.75115]],[[683.8711,277.52061],[-1.09773,3.66841],[2.86453,-9.57275]],[[673.76641,255.04358],[6.80385,5.42281],[-2.56365,-1.37403]],[[665.19526,253.40729],[2.89944,0.23129],[-1.15566,-0.09219]],[[661.81515,252.58801],[1.02278,-0.54586],[-0.6839,0.36499]],[[662.70262,254.73761],[-0.08094,-0.77096],[0.22193,2.11407]],[[662.71027,261.11466],[0.0201,-2.12559],[-0.06193,6.55051]],[[656.41199,279.71924],[7.80673,-4.03101],[-2.37114,1.22434]],[[648.58233,278.04943],[2.62431,0.48404],[-3.82019,-0.70461]],[[631.38036,280.19211],[2.47861,-5.71415],[-2.30211,5.30725]],[[635.32131,297.92898],[-0.62267,-4.58242],[0.52406,3.85678]],[[635.0338,309.6021],[2.70579,-2.79787],[-2.40994,2.49195]],[[624.65375,308.95956],[3.45656,0.26421],[-4.2035,-0.3213]],[[612.01682,308.44776],[4.21428,0.11189],[-0.95791,-0.02543]],[[609.15634,308.16166],[0.84513,-0.45165],[-0.62007,0.33137]],[[608.69923,310.22072],[0.15237,-0.68635],[-0.48688,8.28894]],[[602.11093,340.7582],[9.14871,-4.96273],[-2.67054,1.44864]],[[593.25361,338.60859],[3.00562,0.44338],[-9.19726,-1.35674]],[[564.03336,347.72296],[5.04697,-9.36205],[-6.68422,12.39911]]],&quot;closed&quot;:true}],&quot;index&quot;:null}" fill="#ff0000" stroke="none" stroke-width="0.5" stroke-linecap="butt"/><path d="M238.125,287.75l6.75,-63.5l16.75,1.5l20,62.25z" fill="#7a655b" stroke="#000000" stroke-width="10" stroke-linecap="butt"/><path d="M265.83333,222.33333c0,3.6819 -5.37749,8.33333 -12.83333,8.33333c-7.45584,0 -13.16667,-6.98477 -13.16667,-10.66667c0,-3.6819 5.04416,-4.33333 12.5,-4.33333c7.45584,0 13.5,2.98477 13.5,6.66667z" fill="#940000" stroke="#000000" stroke-width="2" stroke-linecap="butt"/><path d="M259.16667,222.16667c0,1.19662 -2.68629,2.16667 -6,2.16667c-3.31371,0 -6,-0.97005 -6,-2.16667c0,-1.19662 2.68629,-2.16667 6,-2.16667c3.31371,0 6,0.97005 6,2.16667z" fill="#ffffff" stroke="#000000" stroke-width="2" stroke-linecap="butt"/><path d="M258.27654,240.24032c-0.12191,-2.11302 -0.47031,-4.33186 -1.34317,-6.13871c-0.31961,-0.66161 -0.08235,1.59132 -0.58799,2.12444c-0.0624,0.06579 -0.12563,0.13068 -0.18964,0.19472l0.04526,0.03233l-1.6473,2.30622c-0.45157,0.64913 -1.20302,1.07402 -2.0537,1.07402c-1.28702,0 -2.3469,-0.97254 -2.48481,-2.22282l-0.32922,-2.63376l0.23248,-0.02906l-0.23464,-0.57338c0.24207,-0.57807 0.40252,-1.21029 0.58307,-1.82918c-3.03765,-1.01049 -5.80946,-3.09188 -7.80122,-5.75871c0,0 -1.4531,-2.03433 0.58124,-3.48743c2.03433,-1.4531 3.48743,0.58124 3.48743,0.58124c2.13715,3.20776 7.22237,5.81229 10.72532,3.61582l2.29521,-1.31155c0.37408,-0.22304 0.81131,-0.35117 1.27847,-0.35117c0.05462,0 0.10883,0.00175 0.16258,0.0052c0.00585,-0.01416 0.01172,-0.02833 0.0176,-0.0425c0.06348,-0.59652 0.42523,-2.29604 2.48649,-2.29604c2.5,0 2.5,2.5 2.5,2.5l-0.20214,1.31813c-1.36861,3.19106 -2.26429,6.00578 -2.46936,9.50388c-0.10752,1.83396 0.54258,3.75468 0.00483,5.51132v3c0,1.38071 -1.11929,2.5 -2.5,2.5c-1.38071,0 -2.5,-1.11929 -2.5,-2.5v-3c-0.43636,-0.55272 -0.18178,-1.34547 -0.0568,-2.09301z" fill="#a30000" stroke="none" stroke-width="0.5" stroke-linecap="butt"/><path d="M270.625,257.25c0,2.5 -2.5,2.5 -2.5,2.5c-1.19088,0 -2.83557,0 -4.50174,0c-0.02222,4.88171 -0.25033,9.75381 -0.25137,14.62453l-0.2593,2.62423c0,0 -0.24876,2.48759 -2.73635,2.23883c-2.48759,-0.24876 -2.23883,-2.73635 -2.23883,-2.73635l0.2407,-2.37577c-0.00103,-4.78773 0.22295,-9.57676 0.24513,-14.37547c-0.03168,-0.00025 -0.48573,-0.00721 -0.99824,-0.20285c0,2.15095 0,4.30191 0,6.45286v1c0,0 0,2.5 -2.5,2.5c-2.5,0 -2.5,-2.5 -2.5,-2.5c0,-2.28286 0,-5.21489 0,-7.75c-0.66667,0 -1.33333,0 -2,0c0,0 -2.5,0 -2.5,-2.5c0,-2.5 2.5,-2.5 2.5,-2.5c3.33333,0 6.66667,0 10,0l1.39645,-0.22487c0,0 1.37147,-0.19592 2.21837,0.72487c0.6284,0 1.25679,0 1.88519,0h2c0,0 2.5,0 2.5,2.5z" fill="#2d3600" stroke="none" stroke-width="0.5" stroke-linecap="butt"/><path d="M292.48987,208.42283c0,11.915 -5.02087,-5.75504 -15.95553,-5.75504c-10.93466,0 -19.79895,-9.65903 -19.79895,-21.57403c0,-11.915 -20.9024,-21.57403 -9.96775,-21.57403c6.01732,0 28.95303,-2.31731 41.73296,7.6544c10.44373,8.14885 3.98926,35.8905 3.98926,41.2487z" fill="#ab6464" stroke="#000000" stroke-width="5.5" stroke-linecap="butt"/><path d="M214.91667,233.58334c-9.97622,-9.57718 -5.01873,-20.56513 -4.44049,-32.25065c0.53412,-10.79396 -7.03815,-26.99652 1.44049,-35.13602c9.80673,-9.41447 30.80608,-6.36882 43.85176,-5.47131c2.03633,0.1401 4.16477,0.3006 6.33503,0.52874c-0.51637,0.85827 -1.0132,1.72513 -1.42701,2.58848c-5.13472,3.85293 -10.11936,6.86867 -5.59312,13.56367c0.68884,1.0189 2.91091,0.57052 3.93383,0.32904c3.62675,-0.85616 7.07383,-2.73102 10.56543,-3.98676c0.26746,-0.09619 3.06244,-1.79375 3.25331,-1.64032c1.14513,0.92043 0.29266,2.92478 0.37243,4.3918c0.34434,6.33313 -1.9872,13.3444 5,15.25c4.58765,1.25117 6.21703,-8.16512 9,-8.53249c1.17741,-0.15543 1.50936,1.84579 2.39125,2.64124c1.42763,1.28771 2.98684,2.25831 4.84322,2.67084c0.60553,0.13456 1.16573,0.10757 1.68876,-0.04372c0.58995,4.35856 0.55539,8.84947 0.59585,13.33601c0.10238,11.35322 6.31723,25.6786 -3.14407,34.76145c-9.24041,8.8708 -26.6932,5.47483 -38.23277,5.60041c-11.67916,0.12711 -30.78056,0.66679 -40.4339,-8.60041z" fill="#ffffff" stroke="#000000" stroke-width="10" stroke-linecap="butt"/><path d="M286.25278,189.41667c0,11.22979 -9.71045,20.33333 -21.68889,20.33333c-11.97845,0 -21.68889,-9.10355 -21.68889,-20.33333c0,-11.22979 9.71044,-20.33333 21.68889,-20.33333c11.97843,0 21.68889,9.10355 21.68889,20.33333z" fill="#f9ff36" stroke="#000000" stroke-width="6" stroke-linecap="butt"/><path d="M234.125,186.19395c0,9.83401 -8.18946,17.80605 -18.29167,17.80605c-10.10221,0 -18.29167,-7.97203 -18.29167,-17.80605c0,-9.83401 8.18946,-17.80605 18.29167,-17.80605c10.10221,0 18.29167,7.97203 18.29167,17.80605z" fill="#f9ff36" stroke="#000000" stroke-width="6.5" stroke-linecap="butt"/><path d="M247.45833,191.41667c0,-1.38071 1.11929,-2.5 2.5,-2.5c1.38071,0 2.5,1.11929 2.5,2.5c0,1.38071 -1.11929,2.5 -2.5,2.5c-1.38071,0 -2.5,-1.11929 -2.5,-2.5z" fill="#ff8787" stroke="none" stroke-width="0.5" stroke-linecap="butt"/><path d="M220.20833,189.41667c0,-1.38071 1.11929,-2.5 2.5,-2.5c1.38071,0 2.5,1.11929 2.5,2.5c0,1.38071 -1.11929,2.5 -2.5,2.5c-1.38071,0 -2.5,-1.11929 -2.5,-2.5z" fill="#ff8787" stroke="none" stroke-width="0.5" stroke-linecap="butt"/><path d="M284.70513,207.77992c1.38675,2.08013 -0.69338,3.46688 -0.69338,3.46688l-0.7031,0.46795c-1.53986,1.07729 -4.64859,2.41556 -4.96699,4.6088c-0.2135,1.47067 0.47608,2.93399 0.74301,4.3959c0,0 0.44722,2.45968 -2.01246,2.90689c-2.45968,0.44721 -2.90689,-2.01246 -2.90689,-2.01246c-0.21695,-1.19795 -1.00034,-4.95474 -0.75699,-6.1041c0.88095,-4.16079 3.87928,-5.6824 7.03301,-7.8912l0.7969,-0.53205c0,0 2.08013,-1.38675 3.46688,0.69338z" fill="#6b6b6b" stroke="none" stroke-width="0.5" stroke-linecap="butt"/><path d="M219.50688,218.60046c-1.60046,-1.92055 0.32009,-3.52101 0.32009,-3.52101l1.38972,-1.1565c-0.78763,-0.58683 -1.35592,-1.45669 -2.05703,-2.15518c0,0 -1.76777,-1.76777 0,-3.53553c1.76777,-1.76777 3.53553,0 3.53553,0c0.7072,0.71016 4.99548,4.92148 4.98007,5.41387c-0.05245,1.67612 -2.05795,2.64828 -3.08693,3.97242l-1.56045,1.30203c0,0 -1.92055,1.60046 -3.52101,-0.32009z" fill="#6b6b6b" stroke="none" stroke-width="0.5" stroke-linecap="butt"/><path d="M241.9151,192.40749c0.33379,1.37968 -0.32484,3.03787 -0.85269,4.39108c-2.20392,5.65006 -11.95257,5.38266 -13.31929,-0.8517c-1.71477,-7.82197 7.12837,-6.7802 11.75688,-6.7802c0,0 2.5,0 2.5,2.5c0,0.27636 -0.03055,0.52218 -0.0849,0.74082z" fill="#a30000" stroke="none" stroke-width="0.5" stroke-linecap="butt"/><path d="M255.16667,219l-18.33333,3v-13.33333" fill="none" stroke="#000000" stroke-width="5" stroke-linecap="round"/><path d="M272.1312,216.68187c0.9848,2.29786 -1.31306,3.28266 -1.31306,3.28266l-1.91656,0.77231c-2.42094,2.47658 -2.92309,4.47918 -2.90157,7.92983c0,0 0,2.5 -2.5,2.5c-2.5,0 -2.5,-2.5 -2.5,-2.5c0.02707,-5.33102 1.32313,-8.34234 5.09843,-12.07017l2.75011,-1.22769c0,0 2.29786,-0.9848 3.28266,1.31306z" fill="#960000" stroke="none" stroke-width="0.5" stroke-linecap="butt"/><path d="M229.83333,231.16667c-2.5,0 -2.5,-2.5 -2.5,-2.5l0.07464,-0.72699c-0.70155,-2.87989 -0.58675,-3.84781 -3.35934,-5.03694c0,0 -2.23607,-1.11803 -1.11803,-3.3541c1.11803,-2.23607 3.3541,-1.11803 3.3541,-1.11803c4.00884,2.1778 4.86174,3.939 5.97399,8.2964l0.07464,1.93967c0,0 0,2.5 -2.5,2.5z" fill="#960000" stroke="none" stroke-width="0.5" stroke-linecap="butt"/><path d="M237.2847,199.09727c2.23607,1.11803 1.11803,3.3541 1.11803,3.3541l-0.94242,1.44677c-1.44544,1.2389 -2.89739,2.47031 -4.35985,3.68908c0,0 -1.92055,1.60046 -3.52101,-0.32009c-1.60046,-1.92055 0.32009,-3.52101 0.32009,-3.52101c1.44473,-1.20388 2.879,-2.42036 4.30682,-3.64425l-0.27576,0.11344c0,0 1.11803,-2.23607 3.3541,-1.11803z" fill="#960000" stroke="none" stroke-width="0.5" stroke-linecap="butt"/><path d="M243.32362,166.54855c2.45145,0.49029 1.96116,2.94174 1.96116,2.94174l-0.28479,1.17638c0,2.66667 0,5.33333 0,8c0,0 0,2.5 -2.5,2.5c-2.5,0 -2.5,-2.5 -2.5,-2.5c0,-2.66667 0,-5.33333 0,-8l0.38188,-2.15696c0,0 0.49029,-2.45145 2.94174,-1.96116z" fill="#960000" stroke="none" stroke-width="0.5" stroke-linecap="butt"/><path d="M284.83333,230.5c-2.5,0 -2.5,-2.5 -2.5,-2.5v-1.66667c0.00306,-1.99571 0.10847,-3.99603 0.35264,-5.97675c0,0 0.31009,-2.48069 2.79078,-2.17061c2.48069,0.31009 2.17061,2.79078 2.17061,2.79078c-0.22523,1.77435 -0.31707,3.56799 -0.31403,5.35658v1.66667c0,0 0,2.5 -2.5,2.5z" fill="#960000" stroke="none" stroke-width="0.5" stroke-linecap="butt"/><path d="M249.91987,199.3431c0,11.61848 -9.74912,21.03711 -21.77524,21.03711c-12.02612,0 -21.77524,-9.41863 -21.77524,-21.03711c0,-11.61848 9.74912,-21.03711 21.77524,-21.03711c12.02612,0 21.77524,9.41863 21.77524,21.03711z" fill="#ff0000" stroke="#000000" stroke-width="3.5" stroke-linecap="butt"/></g></g></svg>