<svg version="1.1" xmlns="http://www.w3.org/2000/svg" xmlns:xlink="http://www.w3.org/1999/xlink" width="118.66667" height="174.21212" viewBox="0,0,118.66667,174.21212"><g transform="translate(-202.99998,-118.82746)"><g data-paper-data="{&quot;isPaintingLayer&quot;:true}" fill-rule="nonzero" stroke-linecap="butt" stroke-linejoin="miter" stroke-miterlimit="10" stroke-dasharray="" stroke-dashoffset="0" style="mix-blend-mode: normal"><path d="M238.12503,287.75001l6.75,-63.5l16.75,1.5l20,62.25z" fill="#7a655b" stroke="#000000" stroke-width="10"/><path d="M265.83333,222.33335c0,3.6819 -5.37749,8.33333 -12.83333,8.33333c-7.45584,0 -13.16667,-6.98477 -13.16667,-10.66667c0,-3.6819 5.04416,-4.33333 12.5,-4.33333c7.45584,0 13.5,2.98477 13.5,6.66667z" fill="#940000" stroke="#000000" stroke-width="2"/><path d="M259.16668,222.1667c0,1.19662 -2.68629,2.16667 -6,2.16667c-3.31371,0 -6,-0.97005 -6,-2.16667c0,-1.19662 2.68629,-2.16667 6,-2.16667c3.31371,0 6,0.97005 6,2.16667z" fill="#ffffff" stroke="#000000" stroke-width="2"/><path d="M270.62503,257.25001c0,2.5 -2.5,2.5 -2.5,2.5c-1.19088,0 -2.83557,0 -4.50174,0c-0.02222,4.88171 -0.25033,9.75381 -0.25137,14.62453l-0.2593,2.62423c0,0 -0.24876,2.48759 -2.73635,2.23883c-2.48759,-0.24876 -2.23883,-2.73635 -2.23883,-2.73635l0.2407,-2.37577c-0.00103,-4.78773 0.22295,-9.57676 0.24513,-14.37547c-0.03168,-0.00025 -0.48573,-0.00721 -0.99824,-0.20285c0,2.15095 0,4.30191 0,6.45286v1c0,0 0,2.5 -2.5,2.5c-2.5,0 -2.5,-2.5 -2.5,-2.5c0,-2.28286 0,-5.21489 0,-7.75c-0.66667,0 -1.33333,0 -2,0c0,0 -2.5,0 -2.5,-2.5c0,-2.5 2.5,-2.5 2.5,-2.5c3.33333,0 6.66667,0 10,0l1.39645,-0.22487c0,0 1.37147,-0.19592 2.21837,0.72487c0.6284,0 1.25679,0 1.88519,0h2c0,0 2.5,0 2.5,2.5z" fill="#2d3600" stroke="none" stroke-width="0.5"/><path d="M228.55342,156.74679c-1.05252,0.70168 -1.92751,0.51576 -2.53517,0.16082c-0.244,0.11304 -0.53291,0.19701 -0.87483,0.23975c-2.48069,0.31009 -2.79078,-2.17061 -2.79078,-2.17061c-0.50216,-6.81957 -10.3502,-9.91947 -12.71536,-16.11537c-0.69677,-1.8253 -2.13787,-4.49106 -0.70457,-5.81879c3.67066,-3.4003 7.68419,0.45141 9.93258,2.45644c5.91507,5.27483 9.10516,9.91728 10.1154,17.85755l0.2661,-0.07666c0,0 1.38675,2.08013 -0.69338,3.46688z" fill="#c00808" stroke="none" stroke-width="0.5"/><path d="M274.65394,122.31415c1.5373,-1.28072 2.94863,-3.82813 4.91318,-3.44854c2.00124,0.38668 2.94157,3.08253 3.4318,5.06095c0.30504,1.23105 -0.71177,2.45082 -1.29087,3.57917c-1.242,2.41996 -2.89907,4.61993 -4.04763,7.08561c-3.11168,4.37143 -6.93218,10.85544 -11.47457,13.92137c-1.2743,0.8601 -2.86605,2.73336 -4.1956,2.33814c0.00593,0.49484 0.00975,0.98908 0.00975,1.48247c0,0 0,2.5 -2.5,2.5c-2.5,0 -2.5,-2.5 -2.5,-2.5c0,-6.13438 -0.54656,-12.68224 1.09651,-18.68793c0.60374,-2.20677 2.8313,-6.75034 6.25627,-5.66212c0.77882,0.24746 1.11622,0.98283 1.32434,1.85485c0.05166,-0.00318 0.10374,-0.0048 0.1562,-0.0048c0.86114,0 1.62059,0.4354 2.07022,1.09806c2.04106,-3.00344 4.06799,-6.38254 6.75039,-8.61724z" fill="#c00808" stroke="none" stroke-width="0.5"/><path d="M275.03728,183.76964c0.96274,-0.42898 1.92478,-0.90361 2.88782,-1.40432c0.29138,-0.91509 0.97226,-1.70834 1.54441,-2.49047c1.00622,-1.37549 2.00056,-2.53083 3.04246,-3.50483c-0.11181,-0.28602 -0.17865,-0.62794 -0.17865,-1.0367c0,-2.5 2.5,-2.5 2.5,-2.5c1.35957,0.004 2.71453,-0.061 4.06673,-0.17161c0.99868,-0.32009 2.07541,-0.58342 3.25167,-0.80401l0.10248,0.01778l-0.00297,-0.02975l3.29987,-0.32999c0.09264,-0.01041 0.18681,-0.01575 0.28222,-0.01575c0.32392,0 0.63344,0.0616 0.91751,0.17373c4.00443,-0.59289 8.01588,-1.18822 12.08249,-1.17373c1.68906,0.00602 3.43218,-0.39192 5.06712,0.03228c5.37484,1.39454 7.1206,3.22861 2.72331,8.14654c0.63405,0.16285 1.18985,0.30467 1.62145,0.39914l0.35572,0.53425l0.16619,-0.19943l1.98533,1.65444c0.55817,0.4585 0.91421,1.15406 0.91421,1.93278c0,1.38071 -1.11929,2.5 -2.5,2.5c-0.07382,0 -0.14688,-0.0032 -0.21907,-0.00947l-4.306,-0.33123l0.00082,-0.01063c-0.02002,0.00182 -0.04004,0.00361 -0.06006,0.00537c-1.85541,0.16301 -3.89964,-0.80009 -5.68847,-1.0023c-3.39701,-0.38398 -8.04572,-0.64725 -11.94533,-0.21381c-1.59101,0.34664 -3.1669,0.70578 -4.73484,1.06307c-3.18423,1.1361 -6.18335,2.9407 -9.44882,3.6523c-1.58436,0.34526 -3.77516,1.87264 -4.82298,0.63512c-0.16459,-0.19439 -0.2969,-0.40337 -0.40167,-0.62431l-2.81137,1.00406c-0.27802,0.1067 -0.57994,0.16517 -0.89552,0.16517c-1.38071,0 -2.5,-1.11929 -2.5,-2.5c0,-0.94657 0.52607,-1.77027 1.30179,-2.19469l2.2912,-1.30926l0.02841,0.04972zM302.18977,177.78282c-0.13896,0.04128 -0.27775,0.08289 -0.4164,0.12464c0.07493,0.01868 0.14853,0.04074 0.22062,0.06601c0.06174,-0.06704 0.12711,-0.1307 0.19578,-0.19066z" fill="#c00808" stroke="none" stroke-width="0.5"/><path d="M213.44888,174.94426c-1.40815,-2.5844 -2.60363,-6.27313 -0.3788,-7.99495c1.44698,-1.11984 3.64829,0.553 5.3514,1.22175c4.91909,1.93154 8.72832,6.87061 11.24912,11.25526c0,0 0.3353,0.58678 0.35215,1.3245c0.12082,0.19319 0.23678,0.38962 0.34712,0.58981c0.00288,0.00522 0.00576,0.01045 0.00863,0.01568l0.00293,-0.00257l2.32536,2.65755c0.38989,0.44092 0.62653,1.02051 0.62653,1.65538c0,1.38071 -1.11929,2.5 -2.5,2.5c-0.63486,0 -1.21445,-0.23664 -1.65538,-0.62653l-2.60652,-2.2807c-0.72206,-0.54987 -1.48893,-1.04685 -2.28939,-1.49766c-0.28314,0.17896 -0.64166,0.31498 -1.09516,0.37976c-2.47487,0.35355 -2.82843,-2.12132 -2.82843,-2.12132l-0.00702,-0.04976c-0.12177,-0.04488 -0.24384,-0.08907 -0.3662,-0.13259c-3.41024,1.23876 -9.69155,-1.14603 -12.18421,-1.77091l-0.07928,-0.06554l-0.01232,0.03695l-2.94531,-0.98177c-1.02156,-0.31417 -1.76412,-1.26534 -1.76412,-2.38994c0,-1.38071 1.11929,-2.5 2.5,-2.5c0.09542,0 0.18959,0.00535 0.28222,0.01575l3.29987,0.32999l-0.00079,0.00794c0.01049,-0.00157 0.02098,-0.00313 0.03148,-0.00468c1.43805,-0.21208 2.89801,0.09931 4.3361,0.4286z" fill="#c00808" stroke="none" stroke-width="0.5"/><path d="M233.91346,203.72008l-1.64569,2.38102c-3.36297,3.36297 -6.55645,6.66206 -10.13103,9.78864c-2.08051,1.81976 -3.60085,4.37315 -6.0299,5.69215c-0.06441,0.03498 -0.12912,0.06928 -0.19412,0.10294l0.02094,0.02991l-3.30824,2.31577c-0.41054,0.29546 -0.91432,0.46948 -1.45874,0.46948c-1.38071,0 -2.5,-1.11929 -2.5,-2.5c0,-0.41989 0.10352,-0.81561 0.28642,-1.16302l1.31084,-2.62168l0.01416,0.00708l0.00615,-0.04681c2.70353,-4.92173 6.04323,-8.83922 10.05594,-12.51829c-1.8736,0.60107 -3.82576,1.74249 -5.60133,1.05737c-8.36511,-3.22775 -1.14154,-7.14812 1.57549,-8.16019c2.22957,-0.83049 7.78188,-0.05446 10.18565,-0.05446c0,0 0.12227,0 0.31273,0.02704c0.65482,-0.19108 1.30869,-0.38525 1.9606,-0.58577l0.00923,0.00061l-0.00093,-0.00311l3.27768,-0.9833c0.24372,-0.07928 0.50387,-0.12213 0.77403,-0.12213c1.38071,0 2.5,1.11929 2.5,2.5c0,0.86783 -0.44218,1.63238 -1.11353,2.08063c0.45866,1.15862 -0.30634,2.30612 -0.30634,2.30612z" fill="#c00808" stroke="none" stroke-width="0.5"/><path d="M293.5,208.80328c1.24917,1.1331 3.05649,1.88092 3.71687,3.43277c0.07448,0.17502 0.13963,0.35242 0.19661,0.53189l0.07438,-0.02975l1.31228,3.28069c0.12865,0.30123 0.19986,0.63286 0.19986,0.98112c0,1.38071 -1.11929,2.5 -2.5,2.5c-0.69036,0 -1.31536,-0.27982 -1.76777,-0.73223l-2,-2c-1.26295,-1.28553 -2.64366,-2.28495 -4.05967,-3.29969c0.26021,1.21323 0.30756,2.44635 -0.00972,3.67017c-0.0117,0.04515 -0.02375,0.09017 -0.03611,0.13509l0.02465,0.00274l-0.33,2.97002c-0.12362,1.2652 -1.19037,2.2539 -2.48804,2.2539c-0.94657,0 -1.77027,-0.52607 -2.19469,-1.30179l-1.19308,-2.08789c-0.18529,0.03638 -0.38878,0.05635 -0.61223,0.05635c-2.5,0 -2.5,-2.5 -2.5,-2.5v-1.66667c0,-0.55371 -0.05894,-6.33038 0.134,-8.19041c-0.08686,-0.25391 -0.134,-0.52624 -0.134,-0.80959c0,-1.38071 1.11929,-2.5 2.5,-2.5c0.11279,0 0.22383,0.00747 0.33267,0.02194c3.75276,-1.78293 8.62737,2.8262 11.334,5.28134z" fill="#c00808" stroke="none" stroke-width="0.5"/><path d="M255.47986,197.07048c-0.55708,-0.15917 -0.94817,-0.41055 -1.22029,-0.70286c-1.59291,-0.51648 -1.59291,-2.36762 -1.59291,-2.36762c0,-2.28152 0.00088,-4.56305 0.00307,-6.84457l-0.32065,-3.20654c-0.01041,-0.09264 -0.01575,-0.18681 -0.01575,-0.28222c0,-1.38071 1.11929,-2.5 2.5,-2.5c0.90946,0 1.70549,0.48562 2.14294,1.21171l1.04538,1.67261c0.26737,-0.13018 0.53998,-0.40069 0.82493,-0.46408c1.70054,-0.3783 3.8293,-2.07156 5.14333,-0.92777c4.66124,4.05737 -0.37369,5.77654 -1.64774,7.90594c-0.601,1.0045 -0.27781,2.56526 -1.18417,3.30603c-0.95822,0.78315 -2.36034,0.66569 -3.60691,0.86382c-0.01884,0.06731 -0.04075,0.13703 -0.06624,0.20817l1.08562,0.41038c0,0 -0.6868,2.40381 -3.09061,1.71701zM257.92738,188.93225c-0.08783,0.00239 -0.17536,0.00335 -0.26226,0.00299c0.00027,0.43369 0.0005,0.86738 0.0007,1.30107c0.06631,-0.01388 0.12584,-0.04737 0.17617,-0.10742c0.25953,-0.30959 0.14919,-0.75817 0.08538,-1.19664z" fill="#c00808" stroke="none" stroke-width="0.5"/></g></g></svg>