<svg version="1.1" xmlns="http://www.w3.org/2000/svg" xmlns:xlink="http://www.w3.org/1999/xlink" width="81.01291" height="136.4873" viewBox="0,0,81.01291,136.4873"><g transform="translate(-16.98709,-91.84604)"><g data-paper-data="{&quot;isPaintingLayer&quot;:true}" fill-rule="nonzero" stroke-linejoin="miter" stroke-miterlimit="10" stroke-dasharray="" stroke-dashoffset="0" style="mix-blend-mode: normal"><path d="M25,223.33334v-24h68v24z" fill="#ffd400" stroke="#000000" stroke-width="10" stroke-linecap="butt"/><text transform="translate(41.27314,219.33334) scale(0.5,0.5)" font-size="40" xml:space="preserve" fill="#ff8a00" fill-rule="nonzero" stroke="none" stroke-width="1" stroke-linecap="butt" stroke-linejoin="miter" stroke-miterlimit="10" stroke-dasharray="" stroke-dashoffset="0" font-family="Sans Serif" font-weight="normal" text-anchor="start" style="mix-blend-mode: normal"><tspan x="0" dy="0">500</tspan></text><path d="M31.23086,180.54445c-7.77896,-7.46781 -9.63151,-16.03566 -9.18063,-25.14745c0.41648,-8.4166 2.56941,-17.41171 9.18063,-23.75849c7.6468,-7.34094 15.96363,-8.60492 26.13601,-7.90509c8.1436,0.56025 18.17643,1.53909 24.80769,7.90509c7.32491,7.03191 7.05303,15.59604 7.13009,24.13994c0.07983,8.85268 0.24736,17.68365 -7.13009,24.766c-7.20521,6.91701 -16.13553,6.60826 -25.13351,6.70618c-9.10683,0.09912 -18.28299,0.51993 -25.81019,-6.70618z" fill="#ffd400" stroke="#000000" stroke-width="10" stroke-linecap="butt"/><path d="M83.73211,143.19782l0.66592,10.26126l-0.3008,9.40616c0,0 -0.15342,5.67759 -1.59975,8.95574c-1.76102,3.99143 -5.85783,6.8637 -5.85783,6.8637c0,0 -6.70235,3.88334 -8.63484,3.53629c-1.55678,-0.27957 -4.64388,-0.11587 -4.64388,-0.11587z" fill="#9d8300" stroke="#fff1aa" stroke-width="0" stroke-linecap="round"/><path d="M47.94833,128.79166l10.71341,-0.42755l8.67781,1.28266l-17.29129,52.3752c0,0 -4.35081,0.67669 -6.28331,0.32964c-1.55678,-0.27958 -4.4301,-2.25363 -4.4301,-2.25363z" fill="#fff1aa" stroke="#fff1aa" stroke-width="0.5" stroke-linecap="round"/><path d="M54.42397,154.56593c0,6.29053 -5.35027,11.39 -11.95017,11.39c-6.5999,0 -11.95017,-5.09948 -11.95017,-11.39c0,-6.29053 5.35027,-11.39 11.95017,-11.39c6.5999,0 11.95017,5.09948 11.95017,11.39z" fill="none" stroke="#000000" stroke-width="5" stroke-linecap="butt"/><path d="M80.9384,154.93938c0,6.08428 -4.68149,11.01656 -10.4564,11.01656c-5.77491,0 -10.4564,-4.93228 -10.4564,-11.01656c0,-6.08428 4.68149,-11.01656 10.4564,-11.01656c5.77491,0 10.4564,4.93228 10.4564,11.01656z" fill="none" stroke="#000000" stroke-width="5" stroke-linecap="butt"/><path d="M52.9302,174.54512h8.21574" fill="none" stroke="#000000" stroke-width="5" stroke-linecap="round"/><path d="M45.0879,154.75266c0,1.44373 -1.08677,2.6141 -2.42738,2.6141c-1.3406,0 -2.42738,-1.17037 -2.42738,-2.6141c0,-1.44373 1.08677,-2.6141 2.42738,-2.6141c1.3406,0 2.42738,1.17037 2.42738,2.6141z" fill="#000000" stroke="none" stroke-width="0" stroke-linecap="butt"/><path d="M73.46955,154.19249c0,1.54685 -1.25397,2.80082 -2.80082,2.80082c-1.54685,0 -2.80082,-1.25397 -2.80082,-2.80082c0,-1.54685 1.25397,-2.80082 2.80082,-2.80082c1.54685,0 2.80082,1.25397 2.80082,2.80082z" fill="#000000" stroke="none" stroke-width="0" stroke-linecap="butt"/><path d="M39.9619,108.50156l7.90972,3.02418l5.77196,-13.53683l6.62707,14.25688l11.7577,-5.18432l0.85511,15.69697l-34.63176,-0.57604z" fill="#ffd400" stroke="#000000" stroke-width="5" stroke-linecap="round"/></g></g></svg>