<svg version="1.1" xmlns="http://www.w3.org/2000/svg" xmlns:xlink="http://www.w3.org/1999/xlink" width="98.76888" height="137.28041" viewBox="0,0,98.76888,137.28041"><g transform="translate(-202.625,-155.50916)"><g data-paper-data="{&quot;isPaintingLayer&quot;:true}" fill-rule="nonzero" stroke-linecap="butt" stroke-linejoin="miter" stroke-miterlimit="10" stroke-dasharray="" stroke-dashoffset="0" style="mix-blend-mode: normal"><path d="M238.125,287.5l6.75,-63.5l16.75,1.5l20,62.25z" fill="#7a655b" stroke="#000000" stroke-width="10"/><path d="M295.375,201.25c0,10.90762 -11.61484,1.75 -21.625,1.75c-10.01016,0 -18.125,-8.84238 -18.125,-19.75c0,-10.90762 -19.13516,-19.75 -9.125,-19.75c5.50857,0 26.50513,-2.12139 38.20455,7.00724c9.56074,7.45989 10.67045,25.83758 10.67045,30.74276z" fill="#ab6464" stroke="#000000" stroke-width="5.5"/><path d="M221.91667,233.58334c-9.97622,-9.57718 -12.35206,-20.56513 -11.77382,-32.25065c0.53412,-10.79396 3.29518,-22.32985 11.77382,-30.46935c9.80673,-9.41447 20.47275,-11.03549 33.51843,-10.13798c2.03633,0.1401 4.16477,0.3006 6.33503,0.52874c-0.51637,0.85827 -1.0132,1.72513 -1.42701,2.58848c-5.13472,3.85293 -10.11936,6.86867 -5.59312,13.56367c0.68884,1.0189 2.91091,0.57052 3.93383,0.32904c3.62675,-0.85616 7.07383,-2.73102 10.56543,-3.98676c0.26746,-0.09619 3.06244,-1.79375 3.25331,-1.64032c1.14513,0.92043 0.29266,2.92478 0.37243,4.3918c0.34434,6.33313 -1.9872,13.3444 5,15.25c4.58765,1.25117 6.21703,-8.16512 9,-8.53249c1.17741,-0.15543 1.50936,1.84579 2.39125,2.64124c1.42763,1.28771 2.98684,2.25831 4.84322,2.67084c0.60553,0.13456 1.16573,0.10757 1.68876,-0.04372c0.58995,4.35856 0.55539,8.84947 0.59585,13.33601c0.10238,11.35322 0.31723,22.6786 -9.14407,31.76145c-9.24041,8.8708 -20.6932,8.47483 -32.23277,8.60041c-11.67916,0.12711 -23.44723,0.66679 -33.10057,-8.60041z" fill="#6a961f" stroke="#000000" stroke-width="10"/><path d="M274.875,194.75c0,8.28427 -7.16345,15 -16,15c-8.83656,0 -16,-6.71573 -16,-15c0,-8.28427 7.16344,-15 16,-15c8.83655,0 16,6.71573 16,15z" fill="#f9ff36" stroke="#000000" stroke-width="6"/><path d="M234.125,190.25c0,7.59392 -6.32398,13.75 -14.125,13.75c-7.80102,0 -14.125,-6.15608 -14.125,-13.75c0,-7.59392 6.32398,-13.75 14.125,-13.75c7.80102,0 14.125,6.15608 14.125,13.75z" fill="#f9ff36" stroke="#000000" stroke-width="6.5"/><path d="M259.86722,221.60564c-4.21308,7.75697 -11.87762,1.48934 -17.73251,0.34581c0,0 -0.28299,-0.05659 -0.63743,-0.22747c-3.42012,1.57377 -7.05746,1.84247 -10.73148,1.84414c0.66863,0.77797 1.16952,1.46751 2.02148,2.92707c0.46967,0.80465 0.8907,1.64037 1.25,2.5c0.15822,0.37855 -0.08405,1.03675 0.29443,1.19512c0.37425,0.1566 0.64788,-0.52098 1.03622,-0.63834c2.29555,-0.69369 4.52638,-0.94216 6.90318,-1.0498c4.96312,-0.22477 10.03129,-0.154 14.93395,0.51972c2.21193,0.30397 6.10501,1.02552 7.94251,-0.40703c-0.04937,-4.26603 -0.48628,-7.84837 -3.42319,-11.24078c-0.35935,-0.41509 -0.7226,-0.83434 -1.0969,-1.23531c0.01605,1.77537 0.06985,3.9385 -0.76026,5.46687zM251.64931,220.12294c1.21926,0.45997 3.11463,0.84681 3.73347,-0.72858c0.37717,-0.96016 0.24695,-3.01871 0.24222,-3.89436l0.29855,-1.74029c0,0 0.01498,-0.07493 0.05281,-0.19597c-0.35621,0.00199 -0.72819,0.0462 -1.11798,0.13908c-3.11605,0.74249 -5.50965,2.61916 -7.94418,4.49198c1.55143,0.59839 3.04626,1.29102 4.7351,1.92813zM222.8183,222.07326c-0.12061,-0.29332 -0.1933,-0.64693 -0.1933,-1.07325c0,-2.5 2.5,-2.5 2.5,-2.5c4.85639,0 10.15526,0.76134 14.6621,-1.50089c5.04431,-2.53201 8.27576,-7.09303 14.10451,-8.20194c8.52037,-1.62098 15.18419,7.85451 16.21465,15.39736c0.29891,2.18797 -0.21063,4.56382 -0.50384,6.6906c-1.08387,0.97218 -1.93495,2.29501 -3.25162,2.91655c-3.62957,1.71336 -8.93939,0.00538 -12.68202,-0.31021c-3.61423,-0.30477 -7.55768,-0.14409 -11.18991,0.00636c-2.53398,0.10496 -7.8086,2.30568 -10.0606,1.31186c-2.66462,-1.17591 -4.74626,-7.17733 -6.74324,-9.47662l-1.80005,-1.33308c0,0 -1.01765,-0.76323 -1.0567,-1.92675z" fill="#000000" stroke="none" stroke-width="0.5"/><path d="M246.86574,218.2071c2.43453,-1.87283 4.91231,-3.79677 8.02837,-4.53926c0.38979,-0.09288 0.76569,-0.13256 1.1219,-0.13456c-0.03783,0.12104 -0.05215,0.19685 -0.05215,0.19685l-0.29197,1.75253c0.00473,0.87565 0.131,2.97715 -0.24617,3.93731c-0.61884,1.57539 -2.55385,1.21282 -3.77311,0.75285c-1.68884,-0.63711 -3.23544,-1.36734 -4.78688,-1.96573z" data-paper-data="{&quot;noHover&quot;:false,&quot;origItem&quot;:[&quot;Path&quot;,{&quot;applyMatrix&quot;:true,&quot;segments&quot;:[[[503.29861,440.24587],[-3.37768,-1.27423],[2.43852,0.91993]],[[510.76556,438.78872],[-1.23768,3.15077],[0.75434,-1.92033]],[[511.25,431],[0.00945,1.75131],[0,0]],[511.8471,427.51942],[[511.95273,427.12749],[-0.07566,0.24207],[-0.71243,0.00398]],[[509.71677,427.40565],[0.77958,-0.18576],[-6.23211,1.48499]],[[493.82841,436.38961],[4.86905,-3.74565],[3.10287,1.19677]]],&quot;closed&quot;:true}]}" fill="#fff088" stroke="none" stroke-width="0.5"/><path d="M260.58377,216.16305c0.3743,0.40097 0.82732,0.77652 1.18668,1.19161c2.93691,3.39242 3.37542,7.00925 3.42479,11.27528c-1.83751,1.43255 -5.73599,0.72262 -7.94792,0.41866c-4.90266,-0.67372 -10.04959,-0.73703 -15.01271,-0.51226c-2.37679,0.10764 -4.61574,0.34452 -6.91129,1.03822c-0.38834,0.11736 -0.66183,0.79523 -1.03607,0.63863c-0.37849,-0.15837 -0.13789,-0.82017 -0.29611,-1.19872c-0.3593,-0.85963 -0.78304,-1.70395 -1.25271,-2.5086c-0.85196,-1.45956 -1.35399,-2.15864 -2.02263,-2.93661c3.67403,-0.00167 7.31258,-0.28248 10.7327,-1.85625c0.35444,0.17088 0.73514,0.24874 0.73514,0.24874c5.85488,1.14353 13.42094,7.4074 17.63401,-0.34957c0.83011,-1.52838 0.78217,-3.67375 0.76612,-5.44913z" data-paper-data="{&quot;noHover&quot;:false,&quot;origItem&quot;:[&quot;Path&quot;,{&quot;applyMatrix&quot;:true,&quot;segments&quot;:[[[519.73444,443.21128],[1.66022,-3.05675],[-8.42615,15.51394]],[[484.26942,443.9029],[11.70977,2.28706],[0,0]],[[482.99456,443.44795],[0.70889,0.34176],[-6.84023,3.14754]],[[461.53159,447.13623],[7.34805,-0.00334],[1.33726,1.55594]],[[465.57455,452.99037],[-1.70391,-2.91912],[0.93935,1.6093]],[[468.07455,457.99037],[-0.71859,-1.71926],[0.31644,0.7571]],[[468.66342,460.3806],[-0.75697,-0.31674],[0.74849,0.31319]],[[470.73586,459.10393],[-0.77668,0.23471],[4.59109,-1.38739]],[[484.54221,457.00432],[-4.75359,0.21528],[9.92624,-0.44954]],[[514.41011,458.04377],[-9.80532,-1.34744],[4.42387,0.60793]],[[530.29514,457.22972],[-3.67501,2.86509],[-0.09874,-8.53207]],[[523.44875,434.74815],[5.87382,6.78483],[-0.71871,-0.83018]],[[521.25496,432.27753],[0.7486,0.80193],[0.0321,3.55075]]],&quot;closed&quot;:true}]}" fill="#900000" stroke="none" stroke-width="0.5"/><path d="M261.125,195.75c0,-1.38071 1.11929,-2.5 2.5,-2.5c1.38071,0 2.5,1.11929 2.5,2.5c0,1.38071 -1.11929,2.5 -2.5,2.5c-1.38071,0 -2.5,-1.11929 -2.5,-2.5z" fill="#ff8787" stroke="none" stroke-width="0.5"/><path d="M210.875,187.75c0,-1.38071 1.11929,-2.5 2.5,-2.5c1.38071,0 2.5,1.11929 2.5,2.5c0,1.38071 -1.11929,2.5 -2.5,2.5c-1.38071,0 -2.5,-1.11929 -2.5,-2.5z" fill="#ff8787" stroke="none" stroke-width="0.5"/><path d="M281.70513,205.11325c1.38675,2.08013 -0.69338,3.46688 -0.69338,3.46688l-0.7031,0.46795c-1.53986,1.07729 -4.64859,2.41556 -4.96699,4.6088c-0.2135,1.47067 0.47608,2.93399 0.74301,4.3959c0,0 0.44722,2.45968 -2.01246,2.90689c-2.45968,0.44721 -2.90689,-2.01246 -2.90689,-2.01246c-0.21695,-1.19795 -1.00034,-4.95474 -0.75699,-6.1041c0.88095,-4.16079 3.87928,-5.6824 7.03301,-7.8912l0.7969,-0.53205c0,0 2.08013,-1.38675 3.46688,0.69338z" fill="#4c6b17" stroke="none" stroke-width="0.5"/><path d="M219.20445,218.60046c-1.60046,-1.92055 0.32009,-3.52101 0.32009,-3.52101l1.38972,-1.1565c-0.78763,-0.58683 -1.35592,-1.45669 -2.05703,-2.15518c0,0 -1.76777,-1.76777 0,-3.53553c1.76777,-1.76777 3.53553,0 3.53553,0c0.7072,0.71016 4.99548,4.92148 4.98007,5.41387c-0.05245,1.67612 -2.05795,2.64828 -3.08693,3.97242l-1.56045,1.30203c0,0 -1.92055,1.60046 -3.52101,-0.32009z" fill="#4c6b17" stroke="none" stroke-width="0.5"/><path d="M270.625,257.25c0,2.5 -2.5,2.5 -2.5,2.5c-1.19088,0 -2.83557,0 -4.50174,0c-0.02222,4.88171 -0.25033,9.75381 -0.25137,14.62453l-0.2593,2.62423c0,0 -0.24876,2.48759 -2.73635,2.23883c-2.48759,-0.24876 -2.23883,-2.73635 -2.23883,-2.73635l0.2407,-2.37577c-0.00103,-4.78773 0.22295,-9.57676 0.24513,-14.37547c-0.03168,-0.00025 -0.48573,-0.00721 -0.99824,-0.20285c0,2.15095 0,4.30191 0,6.45286v1c0,0 0,2.5 -2.5,2.5c-2.5,0 -2.5,-2.5 -2.5,-2.5c0,-2.28286 0,-5.21489 0,-7.75c-0.66667,0 -1.33333,0 -2,0c0,0 -2.5,0 -2.5,-2.5c0,-2.5 2.5,-2.5 2.5,-2.5c3.33333,0 6.66667,0 10,0l1.39645,-0.22487c0,0 1.37147,-0.19592 2.21837,0.72487c0.6284,0 1.25679,0 1.88519,0h2c0,0 2.5,0 2.5,2.5z" fill="#2d3600" stroke="none" stroke-width="0.5"/></g></g></svg>