<svg version="1.1" xmlns="http://www.w3.org/2000/svg" xmlns:xlink="http://www.w3.org/1999/xlink" width="132.88501" height="78.3729" viewBox="0,0,132.88501,78.3729"><g transform="translate(-155.61088,-214.66668)"><g data-paper-data="{&quot;isPaintingLayer&quot;:true}" fill-rule="nonzero" stroke-linecap="butt" stroke-linejoin="miter" stroke-miterlimit="10" stroke-dasharray="" stroke-dashoffset="0" style="mix-blend-mode: normal"><path d="M238.12503,287.75001l6.75,-63.5l16.75,1.5l20,62.25z" fill="#7a655b" stroke="#000000" stroke-width="10"/><path d="M265.83333,222.33335c0,3.6819 -5.37749,8.33333 -12.83333,8.33333c-7.45584,0 -13.16667,-6.98477 -13.16667,-10.66667c0,-3.6819 5.04416,-4.33333 12.5,-4.33333c7.45584,0 13.5,2.98477 13.5,6.66667z" fill="#940000" stroke="#000000" stroke-width="2"/><path d="M259.16668,222.1667c0,1.19662 -2.68629,2.16667 -6,2.16667c-3.31371,0 -6,-0.97005 -6,-2.16667c0,-1.19662 2.68629,-2.16667 6,-2.16667c3.31371,0 6,0.97005 6,2.16667z" fill="#ffffff" stroke="#000000" stroke-width="2"/><path d="M270.62503,257.25001c0,2.5 -2.5,2.5 -2.5,2.5c-1.19088,0 -2.83557,0 -4.50174,0c-0.02222,4.88171 -0.25033,9.75381 -0.25137,14.62453l-0.2593,2.62423c0,0 -0.24876,2.48759 -2.73635,2.23883c-2.48759,-0.24876 -2.23883,-2.73635 -2.23883,-2.73635l0.2407,-2.37577c-0.00103,-4.78773 0.22295,-9.57676 0.24513,-14.37547c-0.03168,-0.00025 -0.48573,-0.00721 -0.99824,-0.20285c0,2.15095 0,4.30191 0,6.45286v1c0,0 0,2.5 -2.5,2.5c-2.5,0 -2.5,-2.5 -2.5,-2.5c0,-2.28286 0,-5.21489 0,-7.75c-0.66667,0 -1.33333,0 -2,0c0,0 -2.5,0 -2.5,-2.5c0,-2.5 2.5,-2.5 2.5,-2.5c3.33333,0 6.66667,0 10,0l1.39645,-0.22487c0,0 1.37147,-0.19592 2.21837,0.72487c0.6284,0 1.25679,0 1.88519,0h2c0,0 2.5,0 2.5,2.5z" fill="#2d3600" stroke="none" stroke-width="0.5"/><path d="M156.52269,237.59106c0.11142,0.23943 0.00765,0.52385 -0.23178,0.63527c-0.23943,0.11142 -0.52385,0.00765 -0.63527,-0.23178c-0.11142,-0.23943 -0.00765,-0.52385 0.23178,-0.63527c0.23943,-0.11142 0.52385,-0.00765 0.63527,0.23178z" fill="#ff8787" stroke="none" stroke-width="0.5"/></g></g></svg>