<svg version="1.1" xmlns="http://www.w3.org/2000/svg" xmlns:xlink="http://www.w3.org/1999/xlink" width="109.53355" height="137.30242" viewBox="0,0,109.53355,137.30242"><g transform="translate(-194.29166,-155.73715)"><g data-paper-data="{&quot;isPaintingLayer&quot;:true}" fill-rule="nonzero" stroke-linejoin="miter" stroke-miterlimit="10" stroke-dasharray="" stroke-dashoffset="0" style="mix-blend-mode: normal"><path d="M238.125,287.75l6.75,-63.5l16.75,1.5l20,62.25z" fill="#7a655b" stroke="#000000" stroke-width="10" stroke-linecap="butt"/><path d="M265.83333,222.33333c0,3.6819 -5.37749,8.33333 -12.83333,8.33333c-7.45584,0 -13.16667,-6.98477 -13.16667,-10.66667c0,-3.6819 5.04416,-4.33333 12.5,-4.33333c7.45584,0 13.5,2.98477 13.5,6.66667z" fill="#940000" stroke="#000000" stroke-width="2" stroke-linecap="butt"/><path d="M259.16667,222.16667c0,1.19662 -2.68629,2.16667 -6,2.16667c-3.31371,0 -6,-0.97005 -6,-2.16667c0,-1.19662 2.68629,-2.16667 6,-2.16667c3.31371,0 6,0.97005 6,2.16667z" fill="#ffffff" stroke="#000000" stroke-width="2" stroke-linecap="butt"/><path d="M258.27654,240.24032c-0.12191,-2.11302 -0.47031,-4.33186 -1.34317,-6.13871c-0.31961,-0.66161 -0.08235,1.59132 -0.58799,2.12444c-0.0624,0.06579 -0.12563,0.13068 -0.18964,0.19472l0.04526,0.03233l-1.6473,2.30622c-0.45157,0.64913 -1.20302,1.07402 -2.0537,1.07402c-1.28702,0 -2.3469,-0.97254 -2.48481,-2.22282l-0.32922,-2.63376l0.23248,-0.02906l-0.23464,-0.57338c0.24207,-0.57807 0.40252,-1.21029 0.58307,-1.82918c-3.03765,-1.01049 -5.80946,-3.09188 -7.80122,-5.75871c0,0 -1.4531,-2.03433 0.58124,-3.48743c2.03433,-1.4531 3.48743,0.58124 3.48743,0.58124c2.13715,3.20776 7.22237,5.81229 10.72532,3.61582l2.29521,-1.31155c0.37408,-0.22304 0.81131,-0.35117 1.27847,-0.35117c0.05462,0 0.10883,0.00175 0.16258,0.0052c0.00585,-0.01416 0.01172,-0.02833 0.0176,-0.0425c0.06348,-0.59652 0.42523,-2.29604 2.48649,-2.29604c2.5,0 2.5,2.5 2.5,2.5l-0.20214,1.31813c-1.36861,3.19106 -2.26429,6.00578 -2.46936,9.50388c-0.10752,1.83396 0.54258,3.75468 0.00483,5.51132v3c0,1.38071 -1.11929,2.5 -2.5,2.5c-1.38071,0 -2.5,-1.11929 -2.5,-2.5v-3c-0.43636,-0.55272 -0.18178,-1.34547 -0.0568,-2.09301z" fill="#a30000" stroke="none" stroke-width="0.5" stroke-linecap="butt"/><path d="M270.625,257.25c0,2.5 -2.5,2.5 -2.5,2.5c-1.19088,0 -2.83557,0 -4.50174,0c-0.02222,4.88171 -0.25033,9.75381 -0.25137,14.62453l-0.2593,2.62423c0,0 -0.24876,2.48759 -2.73635,2.23883c-2.48759,-0.24876 -2.23883,-2.73635 -2.23883,-2.73635l0.2407,-2.37577c-0.00103,-4.78773 0.22295,-9.57676 0.24513,-14.37547c-0.03168,-0.00025 -0.48573,-0.00721 -0.99824,-0.20285c0,2.15095 0,4.30191 0,6.45286v1c0,0 0,2.5 -2.5,2.5c-2.5,0 -2.5,-2.5 -2.5,-2.5c0,-2.28286 0,-5.21489 0,-7.75c-0.66667,0 -1.33333,0 -2,0c0,0 -2.5,0 -2.5,-2.5c0,-2.5 2.5,-2.5 2.5,-2.5c3.33333,0 6.66667,0 10,0l1.39645,-0.22487c0,0 1.37147,-0.19592 2.21837,0.72487c0.6284,0 1.25679,0 1.88519,0h2c0,0 2.5,0 2.5,2.5z" fill="#2d3600" stroke="none" stroke-width="0.5" stroke-linecap="butt"/><path d="M292.48987,208.42283c0,11.915 -5.02087,-5.75504 -15.95553,-5.75504c-10.93466,0 -19.79895,-9.65903 -19.79895,-21.57403c0,-11.915 -20.9024,-21.57403 -9.96775,-21.57403c6.01732,0 28.95303,-2.31731 41.73296,7.6544c10.44373,8.14885 3.98926,35.8905 3.98926,41.2487z" fill="#ab6464" stroke="#000000" stroke-width="5.5" stroke-linecap="butt"/><path d="M214.91667,233.58334c-9.97622,-9.57718 -5.01873,-20.56513 -4.44049,-32.25065c0.53412,-10.79396 -7.03815,-26.99652 1.44049,-35.13602c9.80673,-9.41447 30.80608,-6.36882 43.85176,-5.47131c2.03633,0.1401 4.16477,0.3006 6.33503,0.52874c-0.51637,0.85827 -1.0132,1.72513 -1.42701,2.58848c-5.13472,3.85293 -10.11936,6.86867 -5.59312,13.56367c0.68884,1.0189 2.91091,0.57052 3.93383,0.32904c3.62675,-0.85616 7.07383,-2.73102 10.56543,-3.98676c0.26746,-0.09619 3.06244,-1.79375 3.25331,-1.64032c1.14513,0.92043 0.29266,2.92478 0.37243,4.3918c0.34434,6.33313 -1.9872,13.3444 5,15.25c4.58765,1.25117 6.21703,-8.16512 9,-8.53249c1.17741,-0.15543 1.50936,1.84579 2.39125,2.64124c1.42763,1.28771 2.98684,2.25831 4.84322,2.67084c0.60553,0.13456 1.16573,0.10757 1.68876,-0.04372c0.58995,4.35856 0.55539,8.84947 0.59585,13.33601c0.10238,11.35322 6.31723,25.6786 -3.14407,34.76145c-9.24041,8.8708 -26.6932,5.47483 -38.23277,5.60041c-11.67916,0.12711 -30.78056,0.66679 -40.4339,-8.60041z" fill="#6a961f" stroke="#000000" stroke-width="10" stroke-linecap="butt"/><path d="M286.25278,189.41667c0,11.22979 -9.71045,20.33333 -21.68889,20.33333c-11.97845,0 -21.68889,-9.10355 -21.68889,-20.33333c0,-11.22979 9.71044,-20.33333 21.68889,-20.33333c11.97843,0 21.68889,9.10355 21.68889,20.33333z" fill="#f9ff36" stroke="#000000" stroke-width="6" stroke-linecap="butt"/><path d="M234.125,186.19395c0,9.83401 -8.18946,17.80605 -18.29167,17.80605c-10.10221,0 -18.29167,-7.97203 -18.29167,-17.80605c0,-9.83401 8.18946,-17.80605 18.29167,-17.80605c10.10221,0 18.29167,7.97203 18.29167,17.80605z" fill="#f9ff36" stroke="#000000" stroke-width="6.5" stroke-linecap="butt"/><path d="M247.45833,191.41667c0,-1.38071 1.11929,-2.5 2.5,-2.5c1.38071,0 2.5,1.11929 2.5,2.5c0,1.38071 -1.11929,2.5 -2.5,2.5c-1.38071,0 -2.5,-1.11929 -2.5,-2.5z" fill="#ff8787" stroke="none" stroke-width="0.5" stroke-linecap="butt"/><path d="M220.20833,189.41667c0,-1.38071 1.11929,-2.5 2.5,-2.5c1.38071,0 2.5,1.11929 2.5,2.5c0,1.38071 -1.11929,2.5 -2.5,2.5c-1.38071,0 -2.5,-1.11929 -2.5,-2.5z" fill="#ff8787" stroke="none" stroke-width="0.5" stroke-linecap="butt"/><path d="M284.70513,207.77992c1.38675,2.08013 -0.69338,3.46688 -0.69338,3.46688l-0.7031,0.46795c-1.53986,1.07729 -4.64859,2.41556 -4.96699,4.6088c-0.2135,1.47067 0.47608,2.93399 0.74301,4.3959c0,0 0.44722,2.45968 -2.01246,2.90689c-2.45968,0.44721 -2.90689,-2.01246 -2.90689,-2.01246c-0.21695,-1.19795 -1.00034,-4.95474 -0.75699,-6.1041c0.88095,-4.16079 3.87928,-5.6824 7.03301,-7.8912l0.7969,-0.53205c0,0 2.08013,-1.38675 3.46688,0.69338z" fill="#4c6b17" stroke="none" stroke-width="0.5" stroke-linecap="butt"/><path d="M219.20445,218.60046c-1.60046,-1.92055 0.32009,-3.52101 0.32009,-3.52101l1.38972,-1.1565c-0.78763,-0.58683 -1.35592,-1.45669 -2.05703,-2.15518c0,0 -1.76777,-1.76777 0,-3.53553c1.76777,-1.76777 3.53553,0 3.53553,0c0.7072,0.71016 4.99548,4.92148 4.98007,5.41387c-0.05245,1.67612 -2.05795,2.64828 -3.08693,3.97242l-1.56045,1.30203c0,0 -1.92055,1.60046 -3.52101,-0.32009z" fill="#4c6b17" stroke="none" stroke-width="0.5" stroke-linecap="butt"/><path d="M241.9151,192.40749c0.33379,1.37968 -0.32484,3.03787 -0.85269,4.39108c-2.20392,5.65006 -11.95257,5.38266 -13.31929,-0.8517c-1.71477,-7.82197 7.12837,-6.7802 11.75688,-6.7802c0,0 2.5,0 2.5,2.5c0,0.27636 -0.03055,0.52218 -0.0849,0.74082z" fill="#a30000" stroke="none" stroke-width="0.5" stroke-linecap="butt"/><path d="M255.16667,219l-18.33333,3v-13.33333" fill="none" stroke="#000000" stroke-width="5" stroke-linecap="round"/><path d="M272.1312,216.68187c0.9848,2.29786 -1.31306,3.28266 -1.31306,3.28266l-1.91656,0.77231c-2.42094,2.47658 -2.92309,4.47918 -2.90157,7.92983c0,0 0,2.5 -2.5,2.5c-2.5,0 -2.5,-2.5 -2.5,-2.5c0.02707,-5.33102 1.32313,-8.34234 5.09843,-12.07017l2.75011,-1.22769c0,0 2.29786,-0.9848 3.28266,1.31306z" fill="#960000" stroke="none" stroke-width="0.5" stroke-linecap="butt"/><path d="M229.83333,231.16667c-2.5,0 -2.5,-2.5 -2.5,-2.5l0.07464,-0.72699c-0.70155,-2.87989 -0.58675,-3.84781 -3.35934,-5.03694c0,0 -2.23607,-1.11803 -1.11803,-3.3541c1.11803,-2.23607 3.3541,-1.11803 3.3541,-1.11803c4.00884,2.1778 4.86174,3.939 5.97399,8.2964l0.07464,1.93967c0,0 0,2.5 -2.5,2.5z" fill="#960000" stroke="none" stroke-width="0.5" stroke-linecap="butt"/><path d="M237.2847,199.09727c2.23607,1.11803 1.11803,3.3541 1.11803,3.3541l-0.94242,1.44677c-1.44544,1.2389 -2.89739,2.47031 -4.35985,3.68908c0,0 -1.92055,1.60046 -3.52101,-0.32009c-1.60046,-1.92055 0.32009,-3.52101 0.32009,-3.52101c1.44473,-1.20388 2.879,-2.42036 4.30682,-3.64425l-0.27576,0.11344c0,0 1.11803,-2.23607 3.3541,-1.11803z" fill="#960000" stroke="none" stroke-width="0.5" stroke-linecap="butt"/><path d="M243.32362,166.54855c2.45145,0.49029 1.96116,2.94174 1.96116,2.94174l-0.28479,1.17638c0,2.66667 0,5.33333 0,8c0,0 0,2.5 -2.5,2.5c-2.5,0 -2.5,-2.5 -2.5,-2.5c0,-2.66667 0,-5.33333 0,-8l0.38188,-2.15696c0,0 0.49029,-2.45145 2.94174,-1.96116z" fill="#960000" stroke="none" stroke-width="0.5" stroke-linecap="butt"/><path d="M284.83333,230.5c-2.5,0 -2.5,-2.5 -2.5,-2.5v-1.66667c0.00306,-1.99571 0.10847,-3.99603 0.35264,-5.97675c0,0 0.31009,-2.48069 2.79078,-2.17061c2.48069,0.31009 2.17061,2.79078 2.17061,2.79078c-0.22523,1.77435 -0.31707,3.56799 -0.31403,5.35658v1.66667c0,0 0,2.5 -2.5,2.5z" fill="#960000" stroke="none" stroke-width="0.5" stroke-linecap="butt"/></g></g></svg>